<svg width="85" height="85" viewBox="0 0 85 85" fill="none" xmlns="http://www.w3.org/2000/svg">
<circle cx="42.412" cy="42.5331" r="42.287" fill="#460D0D" fill-opacity="0.25"/>
<path d="M57.8566 31.6631C59.1263 30.3988 59.1263 28.3489 57.8566 27.0845C56.5868 25.8201 54.528 25.8201 53.2582 27.0845L42.2724 38.0233L31.5656 27.3622C30.2958 26.0979 28.237 26.0979 26.9672 27.3622C25.6974 28.6266 25.6974 30.6765 26.9672 31.9409L37.6741 42.6019L27.1053 53.1256C25.8355 54.3899 25.8355 56.4399 27.1053 57.7042C28.375 58.9686 30.4338 58.9686 31.7036 57.7042L42.2724 47.1806L53.1202 57.982C54.39 59.2463 56.4487 59.2463 57.7185 57.982C58.9883 56.7176 58.9883 54.6677 57.7185 53.4033L46.8707 42.6019L57.8566 31.6631Z" fill="white"/>
</svg>
