<svg width="49" height="48" viewBox="0 0 49 48" fill="none" xmlns="http://www.w3.org/2000/svg">
<path d="M24.1806 47.36C37.5352 47.36 48.3612 36.7581 48.3612 23.68C48.3612 10.6019 37.5352 0 24.1806 0C10.826 0 0 10.6019 0 23.68C0 36.7581 10.826 47.36 24.1806 47.36Z" fill="url(#paint0_radial_1480_24)"/>
<path d="M24.4251 8.53369L8.84802 24.1108C8.84802 24.1108 24.4251 41.1781 24.4251 39.6879L40.0022 24.1108L24.4251 8.53369Z" fill="url(#paint1_radial_1480_24)"/>
<path d="M40.0022 24.1108L24.4251 39.6937L8.84802 24.1108L24.4251 8.53369L40.0022 24.1108Z" fill="url(#paint2_radial_1480_24)"/>
<path d="M24.4252 8.53369V24.1108H40.0023L24.4252 8.53369Z" fill="url(#paint3_radial_1480_24)"/>
<path d="M24.4251 39.6938V24.1108H8.84802C8.84802 24.1108 24.4251 41.1781 24.4251 39.6938Z" fill="url(#paint4_radial_1480_24)"/>
<path d="M24.4271 8.53156L8.84778 24.1108L24.4271 39.6901L40.0063 24.1108L24.4271 8.53156Z" stroke="#09C8DB" stroke-width="0.145526" stroke-miterlimit="10"/>
<path d="M24.4252 8.53369V24.1108H40.0023L24.4252 8.53369Z" stroke="#09C8DB" stroke-width="0.145526" stroke-miterlimit="10"/>
<path d="M24.4251 39.6938V24.1108H8.84802C8.84802 24.1108 24.4251 41.1781 24.4251 39.6938Z" stroke="#09C8DB" stroke-width="0.145526" stroke-miterlimit="10"/>
<path d="M9.69782 21.2934C14.4526 21.2934 18.3071 17.4388 18.3071 12.684C18.3071 7.92923 14.4526 4.07471 9.69782 4.07471C4.94303 4.07471 1.0885 7.92923 1.0885 12.684C1.0885 17.4388 4.94303 21.2934 9.69782 21.2934Z" fill="url(#paint5_radial_1480_24)"/>
<path d="M34.6993 46.1089C37.8531 46.1089 40.4098 43.5522 40.4098 40.3984C40.4098 37.2446 37.8531 34.688 34.6993 34.688C31.5455 34.688 28.9889 37.2446 28.9889 40.3984C28.9889 43.5522 31.5455 46.1089 34.6993 46.1089Z" fill="url(#paint6_radial_1480_24)"/>
<path d="M36.2593 10.4777C34.8739 11.8631 32.6328 11.8631 31.2474 10.4777C29.862 9.09232 29.862 6.85122 31.2474 5.46581C32.6328 4.08041 34.8739 4.08041 36.2593 5.46581C37.6448 6.85122 37.6448 9.09232 36.2593 10.4777Z" fill="url(#paint7_radial_1480_24)"/>
<path d="M9.26133 35.9682C10.4508 35.9682 11.4151 35.0039 11.4151 33.8144C11.4151 32.6249 10.4508 31.6606 9.26133 31.6606C8.07183 31.6606 7.10754 32.6249 7.10754 33.8144C7.10754 35.0039 8.07183 35.9682 9.26133 35.9682Z" fill="url(#paint8_radial_1480_24)"/>
<path d="M17.4166 9.37202C18.6061 9.37202 19.5704 8.40774 19.5704 7.21824C19.5704 6.02874 18.6061 5.06445 17.4166 5.06445C16.2271 5.06445 15.2628 6.02874 15.2628 7.21824C15.2628 8.40774 16.2271 9.37202 17.4166 9.37202Z" fill="url(#paint9_radial_1480_24)"/>
<path d="M18.1501 39.7051C16.9626 40.8926 15.0417 40.8926 13.86 39.7051C12.6725 38.5176 12.6725 36.5967 13.86 35.415C15.0475 34.2275 16.9684 34.2275 18.1501 35.415C19.3376 36.6025 19.3376 38.5235 18.1501 39.7051Z" fill="url(#paint10_radial_1480_24)"/>
<defs>
<radialGradient id="paint0_radial_1480_24" cx="0" cy="0" r="1" gradientUnits="userSpaceOnUse" gradientTransform="translate(24.1783 23.6798) scale(23.9352)">
<stop stop-color="#1C1F24"/>
<stop offset="0.439973" stop-color="#135B67" stop-opacity="0"/>
<stop offset="1" stop-color="#08A8BC" stop-opacity="0.9578"/>
</radialGradient>
<radialGradient id="paint1_radial_1480_24" cx="0" cy="0" r="1" gradientUnits="userSpaceOnUse" gradientTransform="translate(28.0127 15.1792) scale(19.4919)">
<stop offset="0.0864" stop-color="#09C8DB"/>
<stop offset="1" stop-color="#09C8DB"/>
</radialGradient>
<radialGradient id="paint2_radial_1480_24" cx="0" cy="0" r="1" gradientUnits="userSpaceOnUse" gradientTransform="translate(22.518 20.5586) rotate(-45) scale(18.8169)">
<stop stop-color="#09C8DB" stop-opacity="0"/>
<stop offset="0.2643" stop-color="#068599" stop-opacity="0.2643"/>
<stop offset="0.5148" stop-color="#034D62" stop-opacity="0.5148"/>
<stop offset="0.7286" stop-color="#02253A" stop-opacity="0.7286"/>
<stop offset="0.8973" stop-color="#000C22" stop-opacity="0.8973"/>
<stop offset="1" stop-color="#000319"/>
</radialGradient>
<radialGradient id="paint3_radial_1480_24" cx="0" cy="0" r="1" gradientUnits="userSpaceOnUse" gradientTransform="translate(35.948 14.1756) scale(14.8857 14.8857)">
<stop stop-color="#09C8DB" stop-opacity="0"/>
<stop offset="0.1027" stop-color="#09C0D3" stop-opacity="0.1027"/>
<stop offset="0.2637" stop-color="#08A9BD" stop-opacity="0.2637"/>
<stop offset="0.463" stop-color="#068599" stop-opacity="0.463"/>
<stop offset="0.6927" stop-color="#045267" stop-opacity="0.6927"/>
<stop offset="0.9452" stop-color="#011228" stop-opacity="0.9452"/>
<stop offset="1" stop-color="#000319"/>
</radialGradient>
<radialGradient id="paint4_radial_1480_24" cx="0" cy="0" r="1" gradientUnits="userSpaceOnUse" gradientTransform="translate(18.4295 27.445) scale(9.76917 9.76916)">
<stop stop-color="#09C8DB" stop-opacity="0"/>
<stop offset="0.1027" stop-color="#09C0D3" stop-opacity="0.1027"/>
<stop offset="0.2637" stop-color="#08A9BD" stop-opacity="0.2637"/>
<stop offset="0.463" stop-color="#068599" stop-opacity="0.463"/>
<stop offset="0.6927" stop-color="#045267" stop-opacity="0.6927"/>
<stop offset="0.9452" stop-color="#011228" stop-opacity="0.9452"/>
<stop offset="1" stop-color="#000319"/>
</radialGradient>
<radialGradient id="paint5_radial_1480_24" cx="0" cy="0" r="1" gradientUnits="userSpaceOnUse" gradientTransform="translate(9.69677 12.6819) rotate(45) scale(8.61168)">
<stop stop-color="#00CEDE" stop-opacity="0.5268"/>
<stop offset="0.2283" stop-color="#00A3B5" stop-opacity="0.4047"/>
<stop offset="0.7405" stop-color="#00384D" stop-opacity="0.1308"/>
<stop offset="0.9849" stop-color="#000319" stop-opacity="0"/>
</radialGradient>
<radialGradient id="paint6_radial_1480_24" cx="0" cy="0" r="1" gradientUnits="userSpaceOnUse" gradientTransform="translate(34.7012 40.3964) rotate(45) scale(5.71056)">
<stop stop-color="#00CEDE" stop-opacity="0.5268"/>
<stop offset="0.2283" stop-color="#00A3B5" stop-opacity="0.4047"/>
<stop offset="0.7405" stop-color="#00384D" stop-opacity="0.1308"/>
<stop offset="0.9849" stop-color="#000319" stop-opacity="0"/>
</radialGradient>
<radialGradient id="paint7_radial_1480_24" cx="0" cy="0" r="1" gradientUnits="userSpaceOnUse" gradientTransform="translate(33.7521 7.9705) rotate(45) scale(3.54463)">
<stop stop-color="#00CEDE" stop-opacity="0.5268"/>
<stop offset="0.2283" stop-color="#00A3B5" stop-opacity="0.4047"/>
<stop offset="0.7405" stop-color="#00384D" stop-opacity="0.1308"/>
<stop offset="0.9849" stop-color="#000319" stop-opacity="0"/>
</radialGradient>
<radialGradient id="paint8_radial_1480_24" cx="0" cy="0" r="1" gradientUnits="userSpaceOnUse" gradientTransform="translate(9.26244 33.8148) rotate(45) scale(2.15091)">
<stop stop-color="#00CEDE" stop-opacity="0.5268"/>
<stop offset="0.2283" stop-color="#00A3B5" stop-opacity="0.4047"/>
<stop offset="0.7405" stop-color="#00384D" stop-opacity="0.1308"/>
<stop offset="0.9849" stop-color="#000319" stop-opacity="0"/>
</radialGradient>
<radialGradient id="paint9_radial_1480_24" cx="0" cy="0" r="1" gradientUnits="userSpaceOnUse" gradientTransform="translate(17.417 7.21537) rotate(45) scale(2.15091)">
<stop stop-color="#00CEDE" stop-opacity="0.5268"/>
<stop offset="0.2283" stop-color="#00A3B5" stop-opacity="0.4047"/>
<stop offset="0.7405" stop-color="#00384D" stop-opacity="0.1308"/>
<stop offset="0.9849" stop-color="#000319" stop-opacity="0"/>
</radialGradient>
<radialGradient id="paint10_radial_1480_24" cx="0" cy="0" r="1" gradientUnits="userSpaceOnUse" gradientTransform="translate(16.0047 37.5604) rotate(45) scale(3.03401)">
<stop stop-color="#00CEDE" stop-opacity="0.5268"/>
<stop offset="0.2283" stop-color="#00A3B5" stop-opacity="0.4047"/>
<stop offset="0.7405" stop-color="#00384D" stop-opacity="0.1308"/>
<stop offset="0.9849" stop-color="#000319" stop-opacity="0"/>
</radialGradient>
</defs>
</svg>
