<svg width="52" height="52" viewBox="0 0 52 52" fill="none" xmlns="http://www.w3.org/2000/svg">
<rect x="0.678101" y="0.68457" width="50.6311" height="50.6311" rx="25.3156" fill="white"/>
<path d="M28.1632 14.0823C28.1632 12.8825 27.1937 11.9131 25.9938 11.9131C24.7938 11.9131 23.8244 12.8825 23.8244 14.0823V23.8438H14.0622C12.8623 23.8438 11.8928 24.8132 11.8928 26.0131C11.8928 27.2129 12.8623 28.1823 14.0622 28.1823H23.8244V37.9438C23.8244 39.1437 24.7938 40.113 25.9938 40.113C27.1937 40.113 28.1632 39.1437 28.1632 37.9438V28.1823H37.9254C39.1253 28.1823 40.0947 27.2129 40.0947 26.0131C40.0947 24.8132 39.1253 23.8438 37.9254 23.8438H28.1632V14.0823Z" fill="black"/>
</svg>
