<svg width="1080" height="2148" viewBox="0 0 1080 2148" fill="none" xmlns="http://www.w3.org/2000/svg">
<g clip-path="url(#clip0_103_14)">
<rect width="1080" height="2148" fill="#0D0D12"/>
<rect opacity="0.4" x="-585.988" y="-732.613" width="2886.79" height="1443.39" fill="url(#paint0_radial_103_14)"/>
<mask id="mask0_103_14" style="mask-type:alpha" maskUnits="userSpaceOnUse" x="-499" y="-1056" width="2226" height="2186">
<rect x="404.046" y="-1055.37" width="1705.38" height="1429.63" transform="rotate(39.1308 404.046 -1055.37)" fill="url(#paint1_radial_103_14)"/>
</mask>
<g mask="url(#mask0_103_14)">
</g>
<g clip-path="url(#clip1_103_14)">
<g opacity="0.7">
<path opacity="0.11" d="M73.2056 58.9381C74.4674 59.0741 75.6005 58.1614 75.7365 56.8996C75.8724 55.6377 74.9597 54.5046 73.6978 54.3687C72.436 54.2328 71.3029 55.1455 71.167 56.4073C71.031 57.6691 71.9437 58.8022 73.2056 58.9381Z" fill="white"/>
<path d="M79.2688 72.2942C80.2149 72.3961 81.0645 71.7118 81.1664 70.7657C81.2683 69.8196 80.584 68.9701 79.6379 68.8681C78.6918 68.7662 77.8422 69.4505 77.7403 70.3966C77.6383 71.3427 78.3227 72.1923 79.2688 72.2942Z" fill="white"/>
<path d="M119.541 52.3788C120.487 52.4807 121.337 51.7964 121.439 50.8503C121.541 49.9042 120.856 49.0545 119.91 48.9526C118.964 48.8507 118.115 49.5351 118.013 50.4812C117.911 51.4273 118.595 52.2769 119.541 52.3788Z" fill="white"/>
<path d="M22.7229 39.6332C23.669 39.7351 24.5186 39.0507 24.6205 38.1046C24.7224 37.1585 24.0381 36.3089 23.092 36.207C22.1459 36.1051 21.2963 36.7894 21.1944 37.7355C21.0924 38.6816 21.7768 39.5313 22.7229 39.6332Z" fill="white"/>
<path d="M64.9697 103.095C65.6 103.163 66.1661 102.707 66.234 102.077C66.302 101.446 65.846 100.88 65.2156 100.812C64.5852 100.745 64.0192 101.201 63.9512 101.831C63.8833 102.461 64.3393 103.027 64.9697 103.095Z" fill="white"/>
<path d="M313.928 129.926C314.559 129.994 315.125 129.538 315.193 128.907C315.26 128.277 314.805 127.711 314.174 127.643C313.544 127.575 312.978 128.031 312.91 128.661C312.842 129.292 313.298 129.858 313.928 129.926Z" fill="white"/>
<path d="M445.039 81.6646C445.669 81.7325 446.235 81.2765 446.303 80.6461C446.371 80.0157 445.915 79.4497 445.284 79.3818C444.654 79.3138 444.088 79.7698 444.02 80.4002C443.952 81.0306 444.408 81.5967 445.039 81.6646Z" fill="white"/>
<path d="M480.6 169.829C481.23 169.896 481.797 169.441 481.864 168.81C481.932 168.18 481.476 167.614 480.846 167.546C480.216 167.478 479.65 167.934 479.582 168.564C479.514 169.195 479.97 169.761 480.6 169.829Z" fill="white"/>
<path opacity="0.11" d="M58.2714 143.965C58.9018 144.033 59.4679 143.577 59.5358 142.947C59.6037 142.316 59.1477 141.75 58.5174 141.683C57.887 141.615 57.3209 142.071 57.253 142.701C57.1851 143.331 57.6411 143.897 58.2714 143.965Z" fill="white"/>
<path opacity="0.11" d="M278.746 156.161C279.376 156.229 279.942 155.773 280.01 155.142C280.078 154.512 279.622 153.946 278.992 153.878C278.361 153.81 277.795 154.266 277.727 154.896C277.659 155.527 278.115 156.093 278.746 156.161Z" fill="white"/>
<path opacity="0.3" d="M30.2929 6.95169C30.9233 7.0196 31.4894 6.56356 31.5573 5.93318C31.6252 5.3028 31.1693 4.73677 30.5389 4.66886C29.9085 4.60095 29.3424 5.05687 29.2745 5.68725C29.2066 6.31763 29.6626 6.88378 30.2929 6.95169Z" fill="white"/>
<path opacity="0.3" d="M487.162 87.3618C487.792 87.4298 488.358 86.9738 488.426 86.3434C488.494 85.713 488.038 85.1469 487.408 85.079C486.777 85.0111 486.211 85.4671 486.143 86.0975C486.075 86.7278 486.531 87.2939 487.162 87.3618Z" fill="white"/>
<path opacity="0.11" d="M308.351 20.7299C308.981 20.7979 309.547 20.3419 309.615 19.7115C309.683 19.0811 309.227 18.5151 308.597 18.4472C307.967 18.3793 307.401 18.8352 307.333 19.4656C307.265 20.0959 307.721 20.662 308.351 20.7299Z" fill="white"/>
<path opacity="0.11" d="M451.038 133.137C451.668 133.205 452.235 132.749 452.302 132.119C452.37 131.488 451.914 130.922 451.284 130.854C450.654 130.786 450.088 131.242 450.02 131.873C449.952 132.503 450.408 133.069 451.038 133.137Z" fill="white"/>
<path opacity="0.3" d="M161.012 112.292C162.274 112.428 163.407 111.516 163.543 110.254C163.679 108.992 162.766 107.859 161.505 107.723C160.243 107.587 159.11 108.5 158.974 109.761C158.838 111.023 159.75 112.156 161.012 112.292Z" fill="white"/>
<path opacity="0.11" d="M232.085 85.2951C233.347 85.431 234.48 84.5183 234.616 83.2565C234.752 81.9947 233.839 80.8616 232.577 80.7256C231.315 80.5897 230.182 81.5024 230.046 82.7642C229.91 84.026 230.823 85.1591 232.085 85.2951Z" fill="white"/>
<path d="M235.822 45.2704C236.768 45.3723 237.618 44.688 237.72 43.7419C237.822 42.7958 237.137 41.9461 236.191 41.8442C235.245 41.7423 234.395 42.4267 234.293 43.3728C234.192 44.3189 234.876 45.1685 235.822 45.2704Z" fill="white"/>
<path d="M144.115 156.684C145.062 156.786 145.911 156.101 146.013 155.155C146.115 154.209 145.431 153.36 144.485 153.258C143.538 153.156 142.689 153.84 142.587 154.786C142.485 155.732 143.169 156.582 144.115 156.684Z" fill="white"/>
<path d="M520.773 220.366C521.719 220.468 522.569 219.784 522.671 218.838C522.773 217.891 522.088 217.042 521.142 216.94C520.196 216.838 519.347 217.522 519.245 218.468C519.143 219.415 519.827 220.264 520.773 220.366Z" fill="white"/>
<path d="M178.561 62.2074C179.507 62.3093 180.356 61.625 180.458 60.6789C180.56 59.7328 179.876 58.8832 178.93 58.7812C177.984 58.6793 177.134 59.3637 177.032 60.3098C176.93 61.2559 177.615 62.1055 178.561 62.2074Z" fill="white"/>
<path d="M253.234 205.409C254.18 205.511 255.03 204.827 255.132 203.88C255.234 202.934 254.549 202.085 253.603 201.983C252.657 201.881 251.808 202.565 251.706 203.511C251.604 204.457 252.288 205.307 253.234 205.409Z" fill="white"/>
<path d="M564.206 160.351C565.152 160.453 566.001 159.769 566.103 158.822C566.205 157.876 565.521 157.027 564.575 156.925C563.629 156.823 562.779 157.507 562.677 158.453C562.575 159.399 563.26 160.249 564.206 160.351Z" fill="white"/>
<path d="M598.378 100.499C599.324 100.601 600.173 99.917 600.275 98.9709C600.377 98.0248 599.693 97.1751 598.747 97.0732C597.801 96.9713 596.951 97.6557 596.849 98.6018C596.747 99.5479 597.432 100.397 598.378 100.499Z" fill="white"/>
<path opacity="0.3" d="M329.917 56.5661C331.179 56.7021 332.312 55.7893 332.448 54.5275C332.584 53.2657 331.671 52.1326 330.409 51.9966C329.147 51.8607 328.014 52.7734 327.878 54.0352C327.742 55.297 328.655 56.4302 329.917 56.5661Z" fill="white"/>
<path d="M386.015 88.019C386.961 88.1209 387.811 87.4365 387.913 86.4904C388.015 85.5443 387.331 84.6947 386.384 84.5928C385.438 84.4908 384.589 85.1752 384.487 86.1213C384.385 87.0674 385.069 87.917 386.015 88.019Z" fill="white"/>
<path opacity="0.3" d="M446.208 49.4518C447.47 49.5878 448.603 48.6751 448.739 47.4132C448.875 46.1514 447.962 45.0183 446.7 44.8824C445.438 44.7464 444.305 45.6591 444.169 46.921C444.033 48.1828 444.946 49.3159 446.208 49.4518Z" fill="white"/>
<path opacity="0.3" d="M550.516 142.706C551.777 142.842 552.911 141.929 553.047 140.667C553.182 139.405 552.27 138.272 551.008 138.136C549.746 138 548.613 138.913 548.477 140.175C548.341 141.437 549.254 142.57 550.516 142.706Z" fill="white"/>
<path opacity="0.3" d="M416.664 130.594C417.926 130.73 419.059 129.818 419.195 128.556C419.331 127.294 418.418 126.161 417.156 126.025C415.895 125.889 414.761 126.802 414.625 128.064C414.49 129.325 415.402 130.459 416.664 130.594Z" fill="white"/>
<path opacity="0.11" d="M507.394 103.41C508.655 103.546 509.789 102.634 509.924 101.372C510.06 100.11 509.148 98.9768 507.886 98.8409C506.624 98.7049 505.491 99.6177 505.355 100.88C505.219 102.141 506.132 103.274 507.394 103.41Z" fill="white"/>
<path d="M1078.64 40.5269C1079.27 40.5948 1079.83 40.1388 1079.9 39.5084C1079.97 38.8781 1079.51 38.312 1078.88 38.2441C1078.25 38.1762 1077.69 38.6321 1077.62 39.2625C1077.55 39.8929 1078.01 40.4589 1078.64 40.5269Z" fill="white"/>
<path opacity="0.11" d="M669.346 1.06155C669.977 1.12946 670.543 0.673476 670.61 0.0430975C670.678 -0.587281 670.222 -1.15336 669.592 -1.22127C668.962 -1.28918 668.396 -0.833205 668.328 -0.202826C668.26 0.427552 668.716 0.99364 669.346 1.06155Z" fill="white"/>
<path opacity="0.11" d="M1071.93 81.397C1072.56 81.4649 1073.13 81.0089 1073.19 80.3785C1073.26 79.7481 1072.81 79.1821 1072.18 79.1142C1071.55 79.0463 1070.98 79.5022 1070.91 80.1326C1070.84 80.763 1071.3 81.3291 1071.93 81.397Z" fill="white"/>
<path d="M937.375 11.4527C938.005 11.5206 938.571 11.0646 938.639 10.4342C938.707 9.80384 938.251 9.23776 937.62 9.16985C936.99 9.10194 936.424 9.55791 936.356 10.1883C936.288 10.8187 936.744 11.3848 937.375 11.4527Z" fill="white"/>
<path opacity="0.3" d="M857.444 2.83834C858.074 2.90625 858.64 2.45032 858.708 1.81995C858.776 1.18957 858.32 0.623487 857.69 0.555576C857.059 0.487665 856.493 0.943651 856.425 1.57403C856.357 2.20441 856.813 2.77043 857.444 2.83834Z" fill="white"/>
<path opacity="0.3" d="M954.458 35.2432C955.089 35.3111 955.655 34.8551 955.723 34.2247C955.791 33.5943 955.335 33.0283 954.704 32.9604C954.074 32.8924 953.508 33.3484 953.44 33.9788C953.372 34.6092 953.828 35.1752 954.458 35.2432Z" fill="white"/>
<path opacity="0.3" d="M815.05 31.7701C815.681 31.838 816.247 31.382 816.315 30.7516C816.383 30.1212 815.927 29.5551 815.296 29.4872C814.666 29.4193 814.1 29.8753 814.032 30.5057C813.964 31.136 814.42 31.7021 815.05 31.7701Z" fill="white"/>
<path d="M795.414 58.537C796.36 58.6389 797.209 57.9545 797.311 57.0084C797.413 56.0623 796.729 55.2127 795.783 55.1108C794.837 55.0089 793.987 55.6932 793.885 56.6393C793.783 57.5854 794.468 58.435 795.414 58.537Z" fill="white"/>
<path d="M646.376 15.9193C647.322 16.0212 648.171 15.3368 648.273 14.3907C648.375 13.4446 647.691 12.5951 646.745 12.4931C645.799 12.3912 644.949 13.0755 644.847 14.0216C644.745 14.9677 645.43 15.8174 646.376 15.9193Z" fill="white"/>
<path d="M984.423 62.7308C985.369 62.8328 986.219 62.1484 986.321 61.2023C986.423 60.2562 985.738 59.4066 984.792 59.3047C983.846 59.2027 982.996 59.8871 982.895 60.8332C982.793 61.7793 983.477 62.6289 984.423 62.7308Z" fill="white"/>
<path opacity="0.3" d="M772.772 16.821C774.034 16.957 775.167 16.0443 775.303 14.7824C775.439 13.5206 774.527 12.3875 773.265 12.2515C772.003 12.1156 770.87 13.0283 770.734 14.2902C770.598 15.552 771.511 16.6851 772.772 16.821Z" fill="white"/>
</g>
</g>
<rect width="1080" height="2148" fill="url(#paint2_linear_103_14)"/>
<path d="M411.8 1513.8L393.5 1584H372.8L361.6 1537.8L350 1584H329.3L311.5 1513.8H329.8L339.9 1564.9L352.4 1513.8H371.2L383.2 1564.9L393.4 1513.8H411.8ZM454.676 1527.6C461.076 1527.6 466.209 1529.73 470.076 1534C473.942 1538.2 475.876 1544 475.876 1551.4V1584H458.876V1553.7C458.876 1549.97 457.909 1547.07 455.976 1545C454.042 1542.93 451.442 1541.9 448.176 1541.9C444.909 1541.9 442.309 1542.93 440.376 1545C438.442 1547.07 437.476 1549.97 437.476 1553.7V1584H420.376V1510H437.476V1535.7C439.209 1533.23 441.576 1531.27 444.576 1529.8C447.576 1528.33 450.942 1527.6 454.676 1527.6ZM513.159 1584.8C507.692 1584.8 502.759 1583.63 498.359 1581.3C494.025 1578.97 490.592 1575.63 488.059 1571.3C485.592 1566.97 484.359 1561.9 484.359 1556.1C484.359 1550.37 485.625 1545.33 488.159 1541C490.692 1536.6 494.159 1533.23 498.559 1530.9C502.959 1528.57 507.892 1527.4 513.359 1527.4C518.825 1527.4 523.759 1528.57 528.159 1530.9C532.559 1533.23 536.025 1536.6 538.559 1541C541.092 1545.33 542.359 1550.37 542.359 1556.1C542.359 1561.83 541.059 1566.9 538.459 1571.3C535.925 1575.63 532.425 1578.97 527.959 1581.3C523.559 1583.63 518.625 1584.8 513.159 1584.8ZM513.159 1570C516.425 1570 519.192 1568.8 521.459 1566.4C523.792 1564 524.959 1560.57 524.959 1556.1C524.959 1551.63 523.825 1548.2 521.559 1545.8C519.359 1543.4 516.625 1542.2 513.359 1542.2C510.025 1542.2 507.259 1543.4 505.059 1545.8C502.859 1548.13 501.759 1551.57 501.759 1556.1C501.759 1560.57 502.825 1564 504.959 1566.4C507.159 1568.8 509.892 1570 513.159 1570ZM576.83 1584.8C571.364 1584.8 566.43 1583.63 562.03 1581.3C557.697 1578.97 554.264 1575.63 551.73 1571.3C549.264 1566.97 548.03 1561.9 548.03 1556.1C548.03 1550.37 549.297 1545.33 551.83 1541C554.364 1536.6 557.83 1533.23 562.23 1530.9C566.63 1528.57 571.564 1527.4 577.03 1527.4C582.497 1527.4 587.43 1528.57 591.83 1530.9C596.23 1533.23 599.697 1536.6 602.23 1541C604.764 1545.33 606.03 1550.37 606.03 1556.1C606.03 1561.83 604.73 1566.9 602.13 1571.3C599.597 1575.63 596.097 1578.97 591.63 1581.3C587.23 1583.63 582.297 1584.8 576.83 1584.8ZM576.83 1570C580.097 1570 582.864 1568.8 585.13 1566.4C587.464 1564 588.63 1560.57 588.63 1556.1C588.63 1551.63 587.497 1548.2 585.23 1545.8C583.03 1543.4 580.297 1542.2 577.03 1542.2C573.697 1542.2 570.93 1543.4 568.73 1545.8C566.53 1548.13 565.43 1551.57 565.43 1556.1C565.43 1560.57 566.497 1564 568.63 1566.4C570.83 1568.8 573.564 1570 576.83 1570ZM632.202 1536.1C633.869 1533.5 636.169 1531.4 639.102 1529.8C642.036 1528.2 645.469 1527.4 649.402 1527.4C654.002 1527.4 658.169 1528.57 661.902 1530.9C665.636 1533.23 668.569 1536.57 670.702 1540.9C672.902 1545.23 674.002 1550.27 674.002 1556C674.002 1561.73 672.902 1566.8 670.702 1571.2C668.569 1575.53 665.636 1578.9 661.902 1581.3C658.169 1583.63 654.002 1584.8 649.402 1584.8C645.536 1584.8 642.102 1584 639.102 1582.4C636.169 1580.8 633.869 1578.73 632.202 1576.2V1610.6H615.102V1528.2H632.202V1536.1ZM656.602 1556C656.602 1551.73 655.402 1548.4 653.002 1546C650.669 1543.53 647.769 1542.3 644.302 1542.3C640.902 1542.3 638.002 1543.53 635.602 1546C633.269 1548.47 632.102 1551.83 632.102 1556.1C632.102 1560.37 633.269 1563.73 635.602 1566.2C638.002 1568.67 640.902 1569.9 644.302 1569.9C647.702 1569.9 650.602 1568.67 653.002 1566.2C655.402 1563.67 656.602 1560.27 656.602 1556ZM705.673 1584.8C700.807 1584.8 696.473 1583.97 692.673 1582.3C688.873 1580.63 685.873 1578.37 683.673 1575.5C681.473 1572.57 680.24 1569.3 679.973 1565.7H696.873C697.073 1567.63 697.973 1569.2 699.573 1570.4C701.173 1571.6 703.14 1572.2 705.473 1572.2C707.607 1572.2 709.24 1571.8 710.373 1571C711.573 1570.13 712.173 1569.03 712.173 1567.7C712.173 1566.1 711.34 1564.93 709.673 1564.2C708.007 1563.4 705.307 1562.53 701.573 1561.6C697.573 1560.67 694.24 1559.7 691.573 1558.7C688.907 1557.63 686.607 1556 684.673 1553.8C682.74 1551.53 681.773 1548.5 681.773 1544.7C681.773 1541.5 682.64 1538.6 684.373 1536C686.173 1533.33 688.773 1531.23 692.173 1529.7C695.64 1528.17 699.74 1527.4 704.473 1527.4C711.473 1527.4 716.973 1529.13 720.973 1532.6C725.04 1536.07 727.373 1540.67 727.973 1546.4H712.173C711.907 1544.47 711.04 1542.93 709.573 1541.8C708.173 1540.67 706.307 1540.1 703.973 1540.1C701.973 1540.1 700.44 1540.5 699.373 1541.3C698.307 1542.03 697.773 1543.07 697.773 1544.4C697.773 1546 698.607 1547.2 700.273 1548C702.007 1548.8 704.673 1549.6 708.273 1550.4C712.407 1551.47 715.773 1552.53 718.373 1553.6C720.973 1554.6 723.24 1556.27 725.173 1558.6C727.173 1560.87 728.207 1563.93 728.273 1567.8C728.273 1571.07 727.34 1574 725.473 1576.6C723.673 1579.13 721.04 1581.13 717.573 1582.6C714.173 1584.07 710.207 1584.8 705.673 1584.8ZM761.235 1511.3L759.235 1559.2H744.735L742.735 1511.3H761.235ZM752.235 1584.8C749.235 1584.8 746.768 1583.93 744.835 1582.2C742.968 1580.4 742.035 1578.2 742.035 1575.6C742.035 1572.93 742.968 1570.7 744.835 1568.9C746.768 1567.1 749.235 1566.2 752.235 1566.2C755.168 1566.2 757.568 1567.1 759.435 1568.9C761.368 1570.7 762.335 1572.93 762.335 1575.6C762.335 1578.2 761.368 1580.4 759.435 1582.2C757.568 1583.93 755.168 1584.8 752.235 1584.8Z" fill="white"/>
<path d="M311.951 1646.15V1648.94H306.401V1667H302.981V1648.94H297.401V1646.15H311.951ZM323.965 1650.2C325.225 1650.2 326.345 1650.47 327.325 1651.01C328.325 1651.55 329.105 1652.35 329.665 1653.41C330.245 1654.47 330.535 1655.75 330.535 1657.25V1667H327.145V1657.76C327.145 1656.28 326.775 1655.15 326.035 1654.37C325.295 1653.57 324.285 1653.17 323.005 1653.17C321.725 1653.17 320.705 1653.57 319.945 1654.37C319.205 1655.15 318.835 1656.28 318.835 1657.76V1667H315.415V1644.8H318.835V1652.39C319.415 1651.69 320.145 1651.15 321.025 1650.77C321.925 1650.39 322.905 1650.2 323.965 1650.2ZM350.047 1658.33C350.047 1658.95 350.007 1659.51 349.927 1660.01H337.297C337.397 1661.33 337.887 1662.39 338.767 1663.19C339.647 1663.99 340.727 1664.39 342.007 1664.39C343.847 1664.39 345.147 1663.62 345.907 1662.08H349.597C349.097 1663.6 348.187 1664.85 346.867 1665.83C345.567 1666.79 343.947 1667.27 342.007 1667.27C340.427 1667.27 339.007 1666.92 337.747 1666.22C336.507 1665.5 335.527 1664.5 334.807 1663.22C334.107 1661.92 333.757 1660.42 333.757 1658.72C333.757 1657.02 334.097 1655.53 334.777 1654.25C335.477 1652.95 336.447 1651.95 337.687 1651.25C338.947 1650.55 340.387 1650.2 342.007 1650.2C343.567 1650.2 344.957 1650.54 346.177 1651.22C347.397 1651.9 348.347 1652.86 349.027 1654.1C349.707 1655.32 350.047 1656.73 350.047 1658.33ZM346.477 1657.25C346.457 1655.99 346.007 1654.98 345.127 1654.22C344.247 1653.46 343.157 1653.08 341.857 1653.08C340.677 1653.08 339.667 1653.46 338.827 1654.22C337.987 1654.96 337.487 1655.97 337.327 1657.25H346.477ZM356.833 1652.87C357.333 1652.03 357.993 1651.38 358.813 1650.92C359.653 1650.44 360.643 1650.2 361.783 1650.2V1653.74H360.913C359.573 1653.74 358.553 1654.08 357.853 1654.76C357.173 1655.44 356.833 1656.62 356.833 1658.3V1667H353.413V1650.47H356.833V1652.87ZM380.077 1658.33C380.077 1658.95 380.037 1659.51 379.957 1660.01H367.327C367.427 1661.33 367.917 1662.39 368.797 1663.19C369.677 1663.99 370.757 1664.39 372.037 1664.39C373.877 1664.39 375.177 1663.62 375.937 1662.08H379.627C379.127 1663.6 378.217 1664.85 376.897 1665.83C375.597 1666.79 373.977 1667.27 372.037 1667.27C370.457 1667.27 369.037 1666.92 367.777 1666.22C366.537 1665.5 365.557 1664.5 364.837 1663.22C364.137 1661.92 363.787 1660.42 363.787 1658.72C363.787 1657.02 364.127 1655.53 364.807 1654.25C365.507 1652.95 366.477 1651.95 367.717 1651.25C368.977 1650.55 370.417 1650.2 372.037 1650.2C373.597 1650.2 374.987 1650.54 376.207 1651.22C377.427 1651.9 378.377 1652.86 379.057 1654.1C379.737 1655.32 380.077 1656.73 380.077 1658.33ZM376.507 1657.25C376.487 1655.99 376.037 1654.98 375.157 1654.22C374.277 1653.46 373.187 1653.08 371.887 1653.08C370.707 1653.08 369.697 1653.46 368.857 1654.22C368.017 1654.96 367.517 1655.97 367.357 1657.25H376.507ZM397.235 1667.27C395.935 1667.27 394.765 1667.04 393.725 1666.58C392.705 1666.1 391.895 1665.46 391.295 1664.66C390.695 1663.84 390.375 1662.93 390.335 1661.93H393.875C393.935 1662.63 394.265 1663.22 394.865 1663.7C395.485 1664.16 396.255 1664.39 397.175 1664.39C398.135 1664.39 398.875 1664.21 399.395 1663.85C399.935 1663.47 400.205 1662.99 400.205 1662.41C400.205 1661.79 399.905 1661.33 399.305 1661.03C398.725 1660.73 397.795 1660.4 396.515 1660.04C395.275 1659.7 394.265 1659.37 393.485 1659.05C392.705 1658.73 392.025 1658.24 391.445 1657.58C390.885 1656.92 390.605 1656.05 390.605 1654.97C390.605 1654.09 390.865 1653.29 391.385 1652.57C391.905 1651.83 392.645 1651.25 393.605 1650.83C394.585 1650.41 395.705 1650.2 396.965 1650.2C398.845 1650.2 400.355 1650.68 401.495 1651.64C402.655 1652.58 403.275 1653.87 403.355 1655.51H399.935C399.875 1654.77 399.575 1654.18 399.035 1653.74C398.495 1653.3 397.765 1653.08 396.845 1653.08C395.945 1653.08 395.255 1653.25 394.775 1653.59C394.295 1653.93 394.055 1654.38 394.055 1654.94C394.055 1655.38 394.215 1655.75 394.535 1656.05C394.855 1656.35 395.245 1656.59 395.705 1656.77C396.165 1656.93 396.845 1657.14 397.745 1657.4C398.945 1657.72 399.925 1658.05 400.685 1658.39C401.465 1658.71 402.135 1659.19 402.695 1659.83C403.255 1660.47 403.545 1661.32 403.565 1662.38C403.565 1663.32 403.305 1664.16 402.785 1664.9C402.265 1665.64 401.525 1666.22 400.565 1666.64C399.625 1667.06 398.515 1667.27 397.235 1667.27ZM422.411 1658.33C422.411 1658.95 422.371 1659.51 422.291 1660.01H409.661C409.761 1661.33 410.251 1662.39 411.131 1663.19C412.011 1663.99 413.091 1664.39 414.371 1664.39C416.211 1664.39 417.511 1663.62 418.271 1662.08H421.961C421.461 1663.6 420.551 1664.85 419.231 1665.83C417.931 1666.79 416.311 1667.27 414.371 1667.27C412.791 1667.27 411.371 1666.92 410.111 1666.22C408.871 1665.5 407.891 1664.5 407.171 1663.22C406.471 1661.92 406.121 1660.42 406.121 1658.72C406.121 1657.02 406.461 1655.53 407.141 1654.25C407.841 1652.95 408.811 1651.95 410.051 1651.25C411.311 1650.55 412.751 1650.2 414.371 1650.2C415.931 1650.2 417.321 1650.54 418.541 1651.22C419.761 1651.9 420.711 1652.86 421.391 1654.1C422.071 1655.32 422.411 1656.73 422.411 1658.33ZM418.841 1657.25C418.821 1655.99 418.371 1654.98 417.491 1654.22C416.611 1653.46 415.521 1653.08 414.221 1653.08C413.041 1653.08 412.031 1653.46 411.191 1654.22C410.351 1654.96 409.851 1655.97 409.691 1657.25H418.841ZM440.926 1658.33C440.926 1658.95 440.886 1659.51 440.806 1660.01H428.176C428.276 1661.33 428.766 1662.39 429.646 1663.19C430.526 1663.99 431.606 1664.39 432.886 1664.39C434.726 1664.39 436.026 1663.62 436.786 1662.08H440.476C439.976 1663.6 439.066 1664.85 437.746 1665.83C436.446 1666.79 434.826 1667.27 432.886 1667.27C431.306 1667.27 429.886 1666.92 428.626 1666.22C427.386 1665.5 426.406 1664.5 425.686 1663.22C424.986 1661.92 424.636 1660.42 424.636 1658.72C424.636 1657.02 424.976 1655.53 425.656 1654.25C426.356 1652.95 427.326 1651.95 428.566 1651.25C429.826 1650.55 431.266 1650.2 432.886 1650.2C434.446 1650.2 435.836 1650.54 437.056 1651.22C438.276 1651.9 439.226 1652.86 439.906 1654.1C440.586 1655.32 440.926 1656.73 440.926 1658.33ZM437.356 1657.25C437.336 1655.99 436.886 1654.98 436.006 1654.22C435.126 1653.46 434.036 1653.08 432.736 1653.08C431.556 1653.08 430.546 1653.46 429.706 1654.22C428.866 1654.96 428.366 1655.97 428.206 1657.25H437.356ZM464.302 1650.2C465.602 1650.2 466.762 1650.47 467.782 1651.01C468.822 1651.55 469.632 1652.35 470.212 1653.41C470.812 1654.47 471.112 1655.75 471.112 1657.25V1667H467.722V1657.76C467.722 1656.28 467.352 1655.15 466.612 1654.37C465.872 1653.57 464.862 1653.17 463.582 1653.17C462.302 1653.17 461.282 1653.57 460.522 1654.37C459.782 1655.15 459.412 1656.28 459.412 1657.76V1667H456.022V1657.76C456.022 1656.28 455.652 1655.15 454.912 1654.37C454.172 1653.57 453.162 1653.17 451.882 1653.17C450.602 1653.17 449.582 1653.57 448.822 1654.37C448.082 1655.15 447.712 1656.28 447.712 1657.76V1667H444.292V1650.47H447.712V1652.36C448.272 1651.68 448.982 1651.15 449.842 1650.77C450.702 1650.39 451.622 1650.2 452.602 1650.2C453.922 1650.2 455.102 1650.48 456.142 1651.04C457.182 1651.6 457.982 1652.41 458.542 1653.47C459.042 1652.47 459.822 1651.68 460.882 1651.1C461.942 1650.5 463.082 1650.2 464.302 1650.2ZM481.464 1667.27C480.164 1667.27 478.994 1667.04 477.954 1666.58C476.934 1666.1 476.124 1665.46 475.524 1664.66C474.924 1663.84 474.604 1662.93 474.564 1661.93H478.104C478.164 1662.63 478.494 1663.22 479.094 1663.7C479.714 1664.16 480.484 1664.39 481.404 1664.39C482.364 1664.39 483.104 1664.21 483.624 1663.85C484.164 1663.47 484.434 1662.99 484.434 1662.41C484.434 1661.79 484.134 1661.33 483.534 1661.03C482.954 1660.73 482.024 1660.4 480.744 1660.04C479.504 1659.7 478.494 1659.37 477.714 1659.05C476.934 1658.73 476.254 1658.24 475.674 1657.58C475.114 1656.92 474.834 1656.05 474.834 1654.97C474.834 1654.09 475.094 1653.29 475.614 1652.57C476.134 1651.83 476.874 1651.25 477.834 1650.83C478.814 1650.41 479.934 1650.2 481.194 1650.2C483.074 1650.2 484.584 1650.68 485.724 1651.64C486.884 1652.58 487.504 1653.87 487.584 1655.51H484.164C484.104 1654.77 483.804 1654.18 483.264 1653.74C482.724 1653.3 481.994 1653.08 481.074 1653.08C480.174 1653.08 479.484 1653.25 479.004 1653.59C478.524 1653.93 478.284 1654.38 478.284 1654.94C478.284 1655.38 478.444 1655.75 478.764 1656.05C479.084 1656.35 479.474 1656.59 479.934 1656.77C480.394 1656.93 481.074 1657.14 481.974 1657.4C483.174 1657.72 484.154 1658.05 484.914 1658.39C485.694 1658.71 486.364 1659.19 486.924 1659.83C487.484 1660.47 487.774 1661.32 487.794 1662.38C487.794 1663.32 487.534 1664.16 487.014 1664.9C486.494 1665.64 485.754 1666.22 484.794 1666.64C483.854 1667.06 482.744 1667.27 481.464 1667.27ZM503.272 1653.26V1662.41C503.272 1663.03 503.412 1663.48 503.692 1663.76C503.992 1664.02 504.492 1664.15 505.192 1664.15H507.292V1667H504.592C503.052 1667 501.872 1666.64 501.052 1665.92C500.232 1665.2 499.822 1664.03 499.822 1662.41V1653.26H497.872V1650.47H499.822V1646.36H503.272V1650.47H507.292V1653.26H503.272ZM517.614 1667.27C516.054 1667.27 514.644 1666.92 513.384 1666.22C512.124 1665.5 511.134 1664.5 510.414 1663.22C509.694 1661.92 509.334 1660.42 509.334 1658.72C509.334 1657.04 509.704 1655.55 510.444 1654.25C511.184 1652.95 512.194 1651.95 513.474 1651.25C514.754 1650.55 516.184 1650.2 517.764 1650.2C519.344 1650.2 520.774 1650.55 522.054 1651.25C523.334 1651.95 524.344 1652.95 525.084 1654.25C525.824 1655.55 526.194 1657.04 526.194 1658.72C526.194 1660.4 525.814 1661.89 525.054 1663.19C524.294 1664.49 523.254 1665.5 521.934 1666.22C520.634 1666.92 519.194 1667.27 517.614 1667.27ZM517.614 1664.3C518.494 1664.3 519.314 1664.09 520.074 1663.67C520.854 1663.25 521.484 1662.62 521.964 1661.78C522.444 1660.94 522.684 1659.92 522.684 1658.72C522.684 1657.52 522.454 1656.51 521.994 1655.69C521.534 1654.85 520.924 1654.22 520.164 1653.8C519.404 1653.38 518.584 1653.17 517.704 1653.17C516.824 1653.17 516.004 1653.38 515.244 1653.8C514.504 1654.22 513.914 1654.85 513.474 1655.69C513.034 1656.51 512.814 1657.52 512.814 1658.72C512.814 1660.5 513.264 1661.88 514.164 1662.86C515.084 1663.82 516.234 1664.3 517.614 1664.3ZM540.788 1652.93C541.368 1652.13 542.158 1651.48 543.158 1650.98C544.178 1650.46 545.308 1650.2 546.548 1650.2C548.008 1650.2 549.328 1650.55 550.508 1651.25C551.688 1651.95 552.618 1652.95 553.298 1654.25C553.978 1655.53 554.318 1657 554.318 1658.66C554.318 1660.32 553.978 1661.81 553.298 1663.13C552.618 1664.43 551.678 1665.45 550.478 1666.19C549.298 1666.91 547.988 1667.27 546.548 1667.27C545.268 1667.27 544.128 1667.02 543.128 1666.52C542.148 1666.02 541.368 1665.38 540.788 1664.6V1667H537.368V1644.8H540.788V1652.93ZM550.838 1658.66C550.838 1657.52 550.598 1656.54 550.118 1655.72C549.658 1654.88 549.038 1654.25 548.258 1653.83C547.498 1653.39 546.678 1653.17 545.798 1653.17C544.938 1653.17 544.118 1653.39 543.338 1653.83C542.578 1654.27 541.958 1654.91 541.478 1655.75C541.018 1656.59 540.788 1657.58 540.788 1658.72C540.788 1659.86 541.018 1660.86 541.478 1661.72C541.958 1662.56 542.578 1663.2 543.338 1663.64C544.118 1664.08 544.938 1664.3 545.798 1664.3C546.678 1664.3 547.498 1664.08 548.258 1663.64C549.038 1663.18 549.658 1662.52 550.118 1661.66C550.598 1660.8 550.838 1659.8 550.838 1658.66ZM572.85 1658.33C572.85 1658.95 572.81 1659.51 572.73 1660.01H560.1C560.2 1661.33 560.69 1662.39 561.57 1663.19C562.45 1663.99 563.53 1664.39 564.81 1664.39C566.65 1664.39 567.95 1663.62 568.71 1662.08H572.4C571.9 1663.6 570.99 1664.85 569.67 1665.83C568.37 1666.79 566.75 1667.27 564.81 1667.27C563.23 1667.27 561.81 1666.92 560.55 1666.22C559.31 1665.5 558.33 1664.5 557.61 1663.22C556.91 1661.92 556.56 1660.42 556.56 1658.72C556.56 1657.02 556.9 1655.53 557.58 1654.25C558.28 1652.95 559.25 1651.95 560.49 1651.25C561.75 1650.55 563.19 1650.2 564.81 1650.2C566.37 1650.2 567.76 1650.54 568.98 1651.22C570.2 1651.9 571.15 1652.86 571.83 1654.1C572.51 1655.32 572.85 1656.73 572.85 1658.33ZM569.28 1657.25C569.26 1655.99 568.81 1654.98 567.93 1654.22C567.05 1653.46 565.96 1653.08 564.66 1653.08C563.48 1653.08 562.47 1653.46 561.63 1654.22C560.79 1654.96 560.29 1655.97 560.13 1657.25H569.28ZM587.429 1652.9C588.009 1652.14 588.799 1651.5 589.799 1650.98C590.799 1650.46 591.929 1650.2 593.189 1650.2C594.629 1650.2 595.939 1650.56 597.119 1651.28C598.319 1651.98 599.259 1652.97 599.939 1654.25C600.619 1655.53 600.959 1657 600.959 1658.66C600.959 1660.32 600.619 1661.81 599.939 1663.13C599.259 1664.43 598.319 1665.45 597.119 1666.19C595.939 1666.91 594.629 1667.27 593.189 1667.27C591.929 1667.27 590.809 1667.02 589.829 1666.52C588.849 1666 588.049 1665.36 587.429 1664.6V1674.86H584.009V1650.47H587.429V1652.9ZM597.479 1658.66C597.479 1657.52 597.239 1656.54 596.759 1655.72C596.299 1654.88 595.679 1654.25 594.899 1653.83C594.139 1653.39 593.319 1653.17 592.439 1653.17C591.579 1653.17 590.759 1653.39 589.979 1653.83C589.219 1654.27 588.599 1654.91 588.119 1655.75C587.659 1656.59 587.429 1657.58 587.429 1658.72C587.429 1659.86 587.659 1660.86 588.119 1661.72C588.599 1662.56 589.219 1663.2 589.979 1663.64C590.759 1664.08 591.579 1664.3 592.439 1664.3C593.319 1664.3 594.139 1664.08 594.899 1663.64C595.679 1663.18 596.299 1662.52 596.759 1661.66C597.239 1660.8 597.479 1659.8 597.479 1658.66ZM607.761 1652.87C608.261 1652.03 608.921 1651.38 609.741 1650.92C610.581 1650.44 611.571 1650.2 612.711 1650.2V1653.74H611.841C610.501 1653.74 609.481 1654.08 608.781 1654.76C608.101 1655.44 607.761 1656.62 607.761 1658.3V1667H604.341V1650.47H607.761V1652.87ZM623.024 1667.27C621.464 1667.27 620.054 1666.92 618.794 1666.22C617.534 1665.5 616.544 1664.5 615.824 1663.22C615.104 1661.92 614.744 1660.42 614.744 1658.72C614.744 1657.04 615.114 1655.55 615.854 1654.25C616.594 1652.95 617.604 1651.95 618.884 1651.25C620.164 1650.55 621.594 1650.2 623.174 1650.2C624.754 1650.2 626.184 1650.55 627.464 1651.25C628.744 1651.95 629.754 1652.95 630.494 1654.25C631.234 1655.55 631.604 1657.04 631.604 1658.72C631.604 1660.4 631.224 1661.89 630.464 1663.19C629.704 1664.49 628.664 1665.5 627.344 1666.22C626.044 1666.92 624.604 1667.27 623.024 1667.27ZM623.024 1664.3C623.904 1664.3 624.724 1664.09 625.484 1663.67C626.264 1663.25 626.894 1662.62 627.374 1661.78C627.854 1660.94 628.094 1659.92 628.094 1658.72C628.094 1657.52 627.864 1656.51 627.404 1655.69C626.944 1654.85 626.334 1654.22 625.574 1653.8C624.814 1653.38 623.994 1653.17 623.114 1653.17C622.234 1653.17 621.414 1653.38 620.654 1653.8C619.914 1654.22 619.324 1654.85 618.884 1655.69C618.444 1656.51 618.224 1657.52 618.224 1658.72C618.224 1660.5 618.674 1661.88 619.574 1662.86C620.494 1663.82 621.644 1664.3 623.024 1664.3ZM638.405 1652.93C638.985 1652.13 639.775 1651.48 640.775 1650.98C641.795 1650.46 642.925 1650.2 644.165 1650.2C645.625 1650.2 646.945 1650.55 648.125 1651.25C649.305 1651.95 650.235 1652.95 650.915 1654.25C651.595 1655.53 651.935 1657 651.935 1658.66C651.935 1660.32 651.595 1661.81 650.915 1663.13C650.235 1664.43 649.295 1665.45 648.095 1666.19C646.915 1666.91 645.605 1667.27 644.165 1667.27C642.885 1667.27 641.745 1667.02 640.745 1666.52C639.765 1666.02 638.985 1665.38 638.405 1664.6V1667H634.985V1644.8H638.405V1652.93ZM648.455 1658.66C648.455 1657.52 648.215 1656.54 647.735 1655.72C647.275 1654.88 646.655 1654.25 645.875 1653.83C645.115 1653.39 644.295 1653.17 643.415 1653.17C642.555 1653.17 641.735 1653.39 640.955 1653.83C640.195 1654.27 639.575 1654.91 639.095 1655.75C638.635 1656.59 638.405 1657.58 638.405 1658.72C638.405 1659.86 638.635 1660.86 639.095 1661.72C639.575 1662.56 640.195 1663.2 640.955 1663.64C641.735 1664.08 642.555 1664.3 643.415 1664.3C644.295 1664.3 645.115 1664.08 645.875 1663.64C646.655 1663.18 647.275 1662.52 647.735 1661.66C648.215 1660.8 648.455 1659.8 648.455 1658.66ZM658.737 1644.8V1667H655.317V1644.8H658.737ZM678.378 1658.33C678.378 1658.95 678.338 1659.51 678.258 1660.01H665.628C665.728 1661.33 666.218 1662.39 667.098 1663.19C667.978 1663.99 669.058 1664.39 670.338 1664.39C672.178 1664.39 673.478 1663.62 674.238 1662.08H677.928C677.428 1663.6 676.518 1664.85 675.198 1665.83C673.898 1666.79 672.278 1667.27 670.338 1667.27C668.758 1667.27 667.338 1666.92 666.078 1666.22C664.838 1665.5 663.858 1664.5 663.138 1663.22C662.438 1661.92 662.088 1660.42 662.088 1658.72C662.088 1657.02 662.428 1655.53 663.108 1654.25C663.808 1652.95 664.778 1651.95 666.018 1651.25C667.278 1650.55 668.718 1650.2 670.338 1650.2C671.898 1650.2 673.288 1650.54 674.508 1651.22C675.728 1651.9 676.678 1652.86 677.358 1654.1C678.038 1655.32 678.378 1656.73 678.378 1658.33ZM674.808 1657.25C674.788 1655.99 674.338 1654.98 673.458 1654.22C672.578 1653.46 671.488 1653.08 670.188 1653.08C669.008 1653.08 667.998 1653.46 667.158 1654.22C666.318 1654.96 665.818 1655.97 665.658 1657.25H674.808ZM701.753 1650.2C703.053 1650.2 704.213 1650.47 705.233 1651.01C706.273 1651.55 707.083 1652.35 707.663 1653.41C708.263 1654.47 708.563 1655.75 708.563 1657.25V1667H705.173V1657.76C705.173 1656.28 704.803 1655.15 704.063 1654.37C703.323 1653.57 702.313 1653.17 701.033 1653.17C699.753 1653.17 698.733 1653.57 697.973 1654.37C697.233 1655.15 696.863 1656.28 696.863 1657.76V1667H693.473V1657.76C693.473 1656.28 693.103 1655.15 692.363 1654.37C691.623 1653.57 690.613 1653.17 689.333 1653.17C688.053 1653.17 687.033 1653.57 686.273 1654.37C685.533 1655.15 685.163 1656.28 685.163 1657.76V1667H681.743V1650.47H685.163V1652.36C685.723 1651.68 686.433 1651.15 687.293 1650.77C688.153 1650.39 689.073 1650.2 690.053 1650.2C691.373 1650.2 692.553 1650.48 693.593 1651.04C694.633 1651.6 695.433 1652.41 695.993 1653.47C696.493 1652.47 697.273 1651.68 698.333 1651.1C699.393 1650.5 700.533 1650.2 701.753 1650.2ZM742.908 1650.47L737.778 1667H734.178L730.848 1654.79L727.518 1667H723.918L718.758 1650.47H722.238L725.688 1663.76L729.198 1650.47H732.768L736.128 1663.7L739.548 1650.47H742.908ZM747.204 1648.28C746.584 1648.28 746.064 1648.07 745.644 1647.65C745.224 1647.23 745.014 1646.71 745.014 1646.09C745.014 1645.47 745.224 1644.95 745.644 1644.53C746.064 1644.11 746.584 1643.9 747.204 1643.9C747.804 1643.9 748.314 1644.11 748.734 1644.53C749.154 1644.95 749.364 1645.47 749.364 1646.09C749.364 1646.71 749.154 1647.23 748.734 1647.65C748.314 1648.07 747.804 1648.28 747.204 1648.28ZM748.884 1650.47V1667H745.464V1650.47H748.884ZM757.364 1653.26V1662.41C757.364 1663.03 757.504 1663.48 757.784 1663.76C758.084 1664.02 758.584 1664.15 759.284 1664.15H761.384V1667H758.684C757.144 1667 755.964 1666.64 755.144 1665.92C754.324 1665.2 753.914 1664.03 753.914 1662.41V1653.26H751.964V1650.47H753.914V1646.36H757.364V1650.47H761.384V1653.26H757.364ZM773.086 1650.2C774.346 1650.2 775.466 1650.47 776.446 1651.01C777.446 1651.55 778.226 1652.35 778.786 1653.41C779.366 1654.47 779.656 1655.75 779.656 1657.25V1667H776.266V1657.76C776.266 1656.28 775.896 1655.15 775.156 1654.37C774.416 1653.57 773.406 1653.17 772.126 1653.17C770.846 1653.17 769.826 1653.57 769.066 1654.37C768.326 1655.15 767.956 1656.28 767.956 1657.76V1667H764.536V1644.8H767.956V1652.39C768.536 1651.69 769.266 1651.15 770.146 1650.77C771.046 1650.39 772.026 1650.2 773.086 1650.2ZM376.848 1695.47L366.708 1719.77H363.168L366.528 1711.73L360.018 1695.47H363.828L368.478 1708.07L373.308 1695.47H376.848ZM386.599 1712.27C385.039 1712.27 383.629 1711.92 382.369 1711.22C381.109 1710.5 380.119 1709.5 379.399 1708.22C378.679 1706.92 378.319 1705.42 378.319 1703.72C378.319 1702.04 378.689 1700.55 379.429 1699.25C380.169 1697.95 381.179 1696.95 382.459 1696.25C383.739 1695.55 385.169 1695.2 386.749 1695.2C388.329 1695.2 389.759 1695.55 391.039 1696.25C392.319 1696.95 393.329 1697.95 394.069 1699.25C394.809 1700.55 395.179 1702.04 395.179 1703.72C395.179 1705.4 394.799 1706.89 394.039 1708.19C393.279 1709.49 392.239 1710.5 390.919 1711.22C389.619 1711.92 388.179 1712.27 386.599 1712.27ZM386.599 1709.3C387.479 1709.3 388.299 1709.09 389.059 1708.67C389.839 1708.25 390.469 1707.62 390.949 1706.78C391.429 1705.94 391.669 1704.92 391.669 1703.72C391.669 1702.52 391.439 1701.51 390.979 1700.69C390.519 1699.85 389.909 1699.22 389.149 1698.8C388.389 1698.38 387.569 1698.17 386.689 1698.17C385.809 1698.17 384.989 1698.38 384.229 1698.8C383.489 1699.22 382.899 1699.85 382.459 1700.69C382.019 1701.51 381.799 1702.52 381.799 1703.72C381.799 1705.5 382.249 1706.88 383.149 1707.86C384.069 1708.82 385.219 1709.3 386.599 1709.3ZM413.53 1695.47V1712H410.11V1710.05C409.57 1710.73 408.86 1711.27 407.98 1711.67C407.12 1712.05 406.2 1712.24 405.22 1712.24C403.92 1712.24 402.75 1711.97 401.71 1711.43C400.69 1710.89 399.88 1710.09 399.28 1709.03C398.7 1707.97 398.41 1706.69 398.41 1705.19V1695.47H401.8V1704.68C401.8 1706.16 402.17 1707.3 402.91 1708.1C403.65 1708.88 404.66 1709.27 405.94 1709.27C407.22 1709.27 408.23 1708.88 408.97 1708.1C409.73 1707.3 410.11 1706.16 410.11 1704.68V1695.47H413.53ZM442.965 1712H439.545L429.255 1696.43V1712H425.835V1691.12H429.255L439.545 1706.66V1691.12H442.965V1712ZM462.606 1703.33C462.606 1703.95 462.566 1704.51 462.486 1705.01H449.856C449.956 1706.33 450.446 1707.39 451.326 1708.19C452.206 1708.99 453.286 1709.39 454.566 1709.39C456.406 1709.39 457.706 1708.62 458.466 1707.08H462.156C461.656 1708.6 460.746 1709.85 459.426 1710.83C458.126 1711.79 456.506 1712.27 454.566 1712.27C452.986 1712.27 451.566 1711.92 450.306 1711.22C449.066 1710.5 448.086 1709.5 447.366 1708.22C446.666 1706.92 446.316 1705.42 446.316 1703.72C446.316 1702.02 446.656 1700.53 447.336 1699.25C448.036 1697.95 449.006 1696.95 450.246 1696.25C451.506 1695.55 452.946 1695.2 454.566 1695.2C456.126 1695.2 457.516 1695.54 458.736 1696.22C459.956 1696.9 460.906 1697.86 461.586 1699.1C462.266 1700.32 462.606 1701.73 462.606 1703.33ZM459.036 1702.25C459.016 1700.99 458.566 1699.98 457.686 1699.22C456.806 1698.46 455.716 1698.08 454.416 1698.08C453.236 1698.08 452.226 1698.46 451.386 1699.22C450.546 1699.96 450.046 1700.97 449.886 1702.25H459.036ZM469.962 1698.26V1707.41C469.962 1708.03 470.102 1708.48 470.382 1708.76C470.682 1709.02 471.182 1709.15 471.882 1709.15H473.982V1712H471.282C469.742 1712 468.562 1711.64 467.742 1710.92C466.922 1710.2 466.512 1709.03 466.512 1707.41V1698.26H464.562V1695.47H466.512V1691.36H469.962V1695.47H473.982V1698.26H469.962ZM499.334 1695.47L494.204 1712H490.604L487.274 1699.79L483.944 1712H480.344L475.184 1695.47H478.664L482.114 1708.76L485.624 1695.47H489.194L492.554 1708.7L495.974 1695.47H499.334ZM509.06 1712.27C507.5 1712.27 506.09 1711.92 504.83 1711.22C503.57 1710.5 502.58 1709.5 501.86 1708.22C501.14 1706.92 500.78 1705.42 500.78 1703.72C500.78 1702.04 501.15 1700.55 501.89 1699.25C502.63 1697.95 503.64 1696.95 504.92 1696.25C506.2 1695.55 507.63 1695.2 509.21 1695.2C510.79 1695.2 512.22 1695.55 513.5 1696.25C514.78 1696.95 515.79 1697.95 516.53 1699.25C517.27 1700.55 517.64 1702.04 517.64 1703.72C517.64 1705.4 517.26 1706.89 516.5 1708.19C515.74 1709.49 514.7 1710.5 513.38 1711.22C512.08 1711.92 510.64 1712.27 509.06 1712.27ZM509.06 1709.3C509.94 1709.3 510.76 1709.09 511.52 1708.67C512.3 1708.25 512.93 1707.62 513.41 1706.78C513.89 1705.94 514.13 1704.92 514.13 1703.72C514.13 1702.52 513.9 1701.51 513.44 1700.69C512.98 1699.85 512.37 1699.22 511.61 1698.8C510.85 1698.38 510.03 1698.17 509.15 1698.17C508.27 1698.17 507.45 1698.38 506.69 1698.8C505.95 1699.22 505.36 1699.85 504.92 1700.69C504.48 1701.51 504.26 1702.52 504.26 1703.72C504.26 1705.5 504.71 1706.88 505.61 1707.86C506.53 1708.82 507.68 1709.3 509.06 1709.3ZM524.441 1697.87C524.941 1697.03 525.601 1696.38 526.421 1695.92C527.261 1695.44 528.251 1695.2 529.391 1695.2V1698.74H528.521C527.181 1698.74 526.161 1699.08 525.461 1699.76C524.781 1700.44 524.441 1701.62 524.441 1703.3V1712H521.021V1695.47H524.441V1697.87ZM539.074 1703.75L546.694 1712H542.074L535.954 1704.89V1712H532.534V1689.8H535.954V1702.7L541.954 1695.47H546.694L539.074 1703.75ZM555.798 1701.53C555.798 1699.49 556.268 1697.66 557.208 1696.04C558.168 1694.42 559.458 1693.16 561.078 1692.26C562.718 1691.34 564.508 1690.88 566.448 1690.88C568.668 1690.88 570.638 1691.43 572.358 1692.53C574.098 1693.61 575.358 1695.15 576.138 1697.15H572.028C571.488 1696.05 570.738 1695.23 569.778 1694.69C568.818 1694.15 567.708 1693.88 566.448 1693.88C565.068 1693.88 563.838 1694.19 562.758 1694.81C561.678 1695.43 560.828 1696.32 560.208 1697.48C559.608 1698.64 559.308 1699.99 559.308 1701.53C559.308 1703.07 559.608 1704.42 560.208 1705.58C560.828 1706.74 561.678 1707.64 562.758 1708.28C563.838 1708.9 565.068 1709.21 566.448 1709.21C567.708 1709.21 568.818 1708.94 569.778 1708.4C570.738 1707.86 571.488 1707.04 572.028 1705.94H576.138C575.358 1707.94 574.098 1709.48 572.358 1710.56C570.638 1711.64 568.668 1712.18 566.448 1712.18C564.488 1712.18 562.698 1711.73 561.078 1710.83C559.458 1709.91 558.168 1708.64 557.208 1707.02C556.268 1705.4 555.798 1703.57 555.798 1701.53ZM587.312 1712.27C585.752 1712.27 584.342 1711.92 583.082 1711.22C581.822 1710.5 580.832 1709.5 580.112 1708.22C579.392 1706.92 579.032 1705.42 579.032 1703.72C579.032 1702.04 579.402 1700.55 580.142 1699.25C580.882 1697.95 581.892 1696.95 583.172 1696.25C584.452 1695.55 585.882 1695.2 587.462 1695.2C589.042 1695.2 590.472 1695.55 591.752 1696.25C593.032 1696.95 594.042 1697.95 594.782 1699.25C595.522 1700.55 595.892 1702.04 595.892 1703.72C595.892 1705.4 595.512 1706.89 594.752 1708.19C593.992 1709.49 592.952 1710.5 591.632 1711.22C590.332 1711.92 588.892 1712.27 587.312 1712.27ZM587.312 1709.3C588.192 1709.3 589.012 1709.09 589.772 1708.67C590.552 1708.25 591.182 1707.62 591.662 1706.78C592.142 1705.94 592.382 1704.92 592.382 1703.72C592.382 1702.52 592.152 1701.51 591.692 1700.69C591.232 1699.85 590.622 1699.22 589.862 1698.8C589.102 1698.38 588.282 1698.17 587.402 1698.17C586.522 1698.17 585.702 1698.38 584.942 1698.8C584.202 1699.22 583.612 1699.85 583.172 1700.69C582.732 1701.51 582.512 1702.52 582.512 1703.72C582.512 1705.5 582.962 1706.88 583.862 1707.86C584.782 1708.82 585.932 1709.3 587.312 1709.3ZM607.612 1695.2C608.912 1695.2 610.072 1695.47 611.092 1696.01C612.132 1696.55 612.942 1697.35 613.522 1698.41C614.102 1699.47 614.392 1700.75 614.392 1702.25V1712H611.002V1702.76C611.002 1701.28 610.632 1700.15 609.892 1699.37C609.152 1698.57 608.142 1698.17 606.862 1698.17C605.582 1698.17 604.562 1698.57 603.802 1699.37C603.062 1700.15 602.692 1701.28 602.692 1702.76V1712H599.272V1695.47H602.692V1697.36C603.252 1696.68 603.962 1696.15 604.822 1695.77C605.702 1695.39 606.632 1695.2 607.612 1695.2ZM627.095 1695.2C628.395 1695.2 629.555 1695.47 630.575 1696.01C631.615 1696.55 632.425 1697.35 633.005 1698.41C633.585 1699.47 633.875 1700.75 633.875 1702.25V1712H630.485V1702.76C630.485 1701.28 630.115 1700.15 629.375 1699.37C628.635 1698.57 627.625 1698.17 626.345 1698.17C625.065 1698.17 624.045 1698.57 623.285 1699.37C622.545 1700.15 622.175 1701.28 622.175 1702.76V1712H618.755V1695.47H622.175V1697.36C622.735 1696.68 623.445 1696.15 624.305 1695.77C625.185 1695.39 626.115 1695.2 627.095 1695.2ZM653.387 1703.33C653.387 1703.95 653.347 1704.51 653.267 1705.01H640.637C640.737 1706.33 641.227 1707.39 642.107 1708.19C642.987 1708.99 644.067 1709.39 645.347 1709.39C647.187 1709.39 648.487 1708.62 649.247 1707.08H652.937C652.437 1708.6 651.527 1709.85 650.207 1710.83C648.907 1711.79 647.287 1712.27 645.347 1712.27C643.767 1712.27 642.347 1711.92 641.087 1711.22C639.847 1710.5 638.867 1709.5 638.147 1708.22C637.447 1706.92 637.097 1705.42 637.097 1703.72C637.097 1702.02 637.437 1700.53 638.117 1699.25C638.817 1697.95 639.787 1696.95 641.027 1696.25C642.287 1695.55 643.727 1695.2 645.347 1695.2C646.907 1695.2 648.297 1695.54 649.517 1696.22C650.737 1696.9 651.687 1697.86 652.367 1699.1C653.047 1700.32 653.387 1701.73 653.387 1703.33ZM649.817 1702.25C649.797 1700.99 649.347 1699.98 648.467 1699.22C647.587 1698.46 646.497 1698.08 645.197 1698.08C644.017 1698.08 643.007 1698.46 642.167 1699.22C641.327 1699.96 640.827 1700.97 640.667 1702.25H649.817ZM655.613 1703.72C655.613 1702.02 655.953 1700.53 656.633 1699.25C657.333 1697.95 658.293 1696.95 659.513 1696.25C660.733 1695.55 662.133 1695.2 663.713 1695.2C665.713 1695.2 667.363 1695.68 668.663 1696.64C669.983 1697.58 670.873 1698.93 671.333 1700.69H667.643C667.343 1699.87 666.863 1699.23 666.203 1698.77C665.543 1698.31 664.713 1698.08 663.713 1698.08C662.313 1698.08 661.193 1698.58 660.353 1699.58C659.533 1700.56 659.123 1701.94 659.123 1703.72C659.123 1705.5 659.533 1706.89 660.353 1707.89C661.193 1708.89 662.313 1709.39 663.713 1709.39C665.693 1709.39 667.003 1708.52 667.643 1706.78H671.333C670.853 1708.46 669.953 1709.8 668.633 1710.8C667.313 1711.78 665.673 1712.27 663.713 1712.27C662.133 1712.27 660.733 1711.92 659.513 1711.22C658.293 1710.5 657.333 1709.5 656.633 1708.22C655.953 1706.92 655.613 1705.42 655.613 1703.72ZM678.731 1698.26V1707.41C678.731 1708.03 678.871 1708.48 679.151 1708.76C679.451 1709.02 679.951 1709.15 680.651 1709.15H682.751V1712H680.051C678.511 1712 677.331 1711.64 676.511 1710.92C675.691 1710.2 675.281 1709.03 675.281 1707.41V1698.26H673.331V1695.47H675.281V1691.36H678.731V1695.47H682.751V1698.26H678.731ZM687.643 1693.28C687.023 1693.28 686.503 1693.07 686.083 1692.65C685.663 1692.23 685.453 1691.71 685.453 1691.09C685.453 1690.47 685.663 1689.95 686.083 1689.53C686.503 1689.11 687.023 1688.9 687.643 1688.9C688.243 1688.9 688.753 1689.11 689.173 1689.53C689.593 1689.95 689.803 1690.47 689.803 1691.09C689.803 1691.71 689.593 1692.23 689.173 1692.65C688.753 1693.07 688.243 1693.28 687.643 1693.28ZM689.323 1695.47V1712H685.903V1695.47H689.323ZM702.153 1695.2C703.453 1695.2 704.613 1695.47 705.633 1696.01C706.673 1696.55 707.483 1697.35 708.063 1698.41C708.643 1699.47 708.933 1700.75 708.933 1702.25V1712H705.543V1702.76C705.543 1701.28 705.173 1700.15 704.433 1699.37C703.693 1698.57 702.683 1698.17 701.403 1698.17C700.123 1698.17 699.103 1698.57 698.343 1699.37C697.603 1700.15 697.233 1701.28 697.233 1702.76V1712H693.813V1695.47H697.233V1697.36C697.793 1696.68 698.503 1696.15 699.363 1695.77C700.243 1695.39 701.173 1695.2 702.153 1695.2ZM714.676 1712.21C714.056 1712.21 713.536 1712 713.116 1711.58C712.696 1711.16 712.486 1710.64 712.486 1710.02C712.486 1709.4 712.696 1708.88 713.116 1708.46C713.536 1708.04 714.056 1707.83 714.676 1707.83C715.276 1707.83 715.786 1708.04 716.206 1708.46C716.626 1708.88 716.836 1709.4 716.836 1710.02C716.836 1710.64 716.626 1711.16 716.206 1711.58C715.786 1712 715.276 1712.21 714.676 1712.21Z" fill="white"/>
<g style="mix-blend-mode:color-dodge">
<rect x="115" y="424" width="850" height="1000" rx="30" fill="#2C2D3D"/>
</g>
<path opacity="0.5" d="M477.361 629.329L199.828 1335.8C199.828 1335.8 364.317 1413.19 891.178 1341.66L615.676 627.073C615.676 627.073 601.461 632.262 547.082 633.842C496.54 635.196 477.361 629.329 477.361 629.329Z" fill="url(#paint3_linear_103_14)"/>
<g opacity="0.7">
<g style="mix-blend-mode:hard-light">
<path d="M907.199 1344.82C907.199 1358.13 744.289 1369.19 543.247 1369.19C342.205 1369.19 179.296 1358.36 179.296 1344.82C179.296 1331.28 342.205 1320.45 543.247 1320.45C744.289 1320.45 907.199 1331.51 907.199 1344.82Z" fill="black"/>
</g>
</g>
<path d="M747.983 1333.28C752.072 1322.17 746.381 1309.85 735.271 1305.76C724.162 1301.67 711.841 1307.36 707.752 1318.47C703.663 1329.58 709.354 1341.9 720.464 1345.99C731.573 1350.08 743.893 1344.39 747.983 1333.28Z" fill="#E89F2B"/>
<path d="M727.818 1198.38C715.86 1198.38 706.383 1188.68 706.157 1176.95C706.157 1164.99 715.86 1155.51 727.593 1155.29C739.551 1155.29 749.028 1164.99 749.254 1176.72C749.479 1188.91 739.777 1198.38 727.818 1198.38Z" fill="#E89F2B"/>
<path d="M857.334 1251.86C864.554 1252.99 872 1253.67 878.092 1257.95C881.477 1260.21 884.41 1263.14 886.441 1266.53C888.246 1269.46 888.246 1271.94 891.405 1273.75C892.984 1274.65 894.564 1273.75 895.24 1272.17C898.174 1264.72 887.118 1255.47 881.477 1252.31C874.031 1248.02 864.78 1245.77 857.108 1250.51C856.657 1250.73 856.657 1251.86 857.334 1251.86Z" fill="#D18C2B"/>
<path d="M882.379 1278.94C889.374 1296.99 917.578 1286.16 910.358 1267.88C903.363 1249.83 875.384 1260.89 882.379 1278.94Z" fill="#DC432B"/>
<path d="M515.269 1351.59C487.967 1353.62 460.665 1354.98 433.363 1354.3C406.061 1353.62 378.984 1347.76 351.682 1347.53C348.975 1347.53 348.524 1351.59 351.006 1352.27C376.502 1360.39 406.738 1360.17 433.363 1360.84C461.116 1361.29 488.418 1359.71 515.72 1355.65C518.202 1355.43 517.751 1351.37 515.269 1351.59Z" fill="#DC432B"/>
<path d="M229.614 1332.64C263.233 1334.67 296.628 1334.89 330.247 1334.44C360.708 1333.99 394.554 1336.47 424.338 1330.16C426.594 1329.7 425.917 1326.55 423.886 1326.32C407.189 1324.52 390.267 1327.22 373.57 1327.67C358.001 1328.13 342.432 1328.35 326.863 1328.35C294.371 1328.58 262.105 1328.13 229.614 1328.13C226.68 1328.13 226.68 1332.41 229.614 1332.64Z" fill="#DC432B"/>
<path d="M533.094 1204.03V1297.89H520.91L499.926 1250.96L524.52 1204.03H533.094Z" fill="#F1EFE8"/>
<path d="M433.588 1317.97L433.814 1139.49C433.814 1129.57 441.711 1121.67 451.639 1121.67L599.882 1121.89C609.81 1121.89 617.708 1129.79 617.708 1139.72L617.482 1318.2C617.482 1328.13 609.585 1336.02 599.657 1336.02L451.414 1335.8C441.486 1335.8 433.588 1327.9 433.588 1317.97Z" fill="#DC432B"/>
<path d="M439.229 1254.79L491.577 1145.81C493.156 1142.65 496.766 1141.3 499.925 1142.88L513.238 1149.2C516.397 1150.77 517.751 1154.39 516.171 1157.54L463.824 1266.53C462.244 1269.69 458.634 1271.04 455.475 1269.46L442.162 1263.14C439.004 1261.79 437.65 1257.95 439.229 1254.79Z" fill="#E89F2B"/>
<path d="M490.449 1159.57C485.71 1169.28 500.828 1176.72 505.566 1166.79C510.305 1157.09 495.187 1149.65 490.449 1159.57Z" fill="white"/>
<path d="M475.331 1190.71C470.593 1200.41 485.71 1207.86 490.449 1197.93C495.187 1188.23 480.069 1181.01 475.331 1190.71Z" fill="white"/>
<path d="M461.341 1220.04C456.603 1229.75 471.72 1237.19 476.459 1227.27C481.197 1217.56 466.08 1210.12 461.341 1220.04Z" fill="white"/>
<path d="M449.157 1245.54C444.419 1255.24 459.536 1262.69 464.275 1252.76C469.013 1243.06 453.67 1235.61 449.157 1245.54Z" fill="white"/>
<path d="M556.561 1336.02C557.012 1336.02 557.689 1336.02 558.14 1336.02C558.591 1336.02 559.268 1336.02 559.719 1336.02L561.299 1321.58C561.976 1321.58 562.653 1321.36 563.104 1321.36L567.617 1335.35C568.519 1335.12 569.647 1334.89 570.55 1334.67L568.971 1320.23C569.647 1320 570.099 1319.78 570.776 1319.55L577.996 1332.19C578.899 1331.74 579.801 1331.28 580.704 1330.83L576.191 1316.84C576.642 1316.62 577.319 1316.17 577.77 1315.94L587.473 1326.77C588.375 1326.09 589.052 1325.64 589.955 1324.97L582.734 1312.33C583.186 1311.88 583.637 1311.43 584.088 1310.98L595.821 1319.55C596.498 1318.87 597.175 1317.97 597.852 1317.29L588.15 1306.46C588.601 1306.01 588.827 1305.56 589.278 1304.88L602.59 1310.75C603.042 1309.85 603.719 1308.95 604.17 1308.04L592.437 1299.47C592.662 1298.79 592.888 1298.34 593.114 1297.66L607.329 1300.82C607.78 1299.92 608.006 1298.79 608.231 1297.89L594.919 1292.02C595.144 1291.35 595.144 1290.89 595.37 1290.22H610.036C610.262 1289.32 610.262 1288.19 610.262 1287.06L596.047 1284.13C596.047 1283.9 596.047 1283.45 596.047 1283.22C596.047 1283 596.047 1282.55 596.047 1282.32L610.262 1279.39C610.262 1278.26 610.036 1277.36 610.036 1276.23H595.37C595.144 1275.55 595.144 1274.87 594.919 1274.42L608.231 1268.56C608.006 1267.65 607.554 1266.53 607.329 1265.62L593.114 1268.56C592.888 1267.88 592.662 1267.43 592.437 1266.75L604.17 1258.18C603.719 1257.28 603.267 1256.37 602.59 1255.47L589.278 1261.34C588.827 1260.89 588.601 1260.21 588.15 1259.76L597.852 1248.93C597.175 1248.25 596.498 1247.35 595.821 1246.67L584.088 1255.24C583.637 1254.79 583.186 1254.34 582.734 1253.89L590.18 1241.25C589.278 1240.58 588.601 1240.13 587.698 1239.45L577.996 1250.28C577.545 1250.05 576.868 1249.6 576.417 1249.38L580.929 1235.39C580.027 1234.94 579.124 1234.49 578.222 1234.03L571.001 1246.67C570.324 1246.44 569.873 1246.22 569.196 1245.99L570.776 1231.55C569.873 1231.33 568.745 1231.1 567.842 1230.88L563.33 1244.87C562.653 1244.87 561.976 1244.64 561.525 1244.64L559.945 1230.2C559.494 1230.2 558.817 1230.2 558.366 1230.2C557.914 1230.2 557.237 1230.2 556.786 1230.2L555.207 1244.64C554.53 1244.64 553.853 1244.87 553.402 1244.87L548.889 1230.88C547.986 1231.1 546.858 1231.33 545.956 1231.55L547.535 1245.99C546.858 1246.22 546.407 1246.44 545.73 1246.67L538.51 1234.03C537.607 1234.49 536.705 1234.94 535.802 1235.39L540.315 1249.38C539.863 1249.6 539.187 1250.05 538.735 1250.28L529.033 1239.45C528.13 1240.13 527.453 1240.58 526.551 1241.25L533.771 1253.89C533.32 1254.34 532.869 1254.79 532.417 1255.24L520.684 1246.67C520.007 1247.35 519.331 1248.25 518.654 1248.93L528.356 1259.76C527.905 1260.21 527.679 1260.66 527.228 1261.34L513.915 1255.47C513.464 1256.37 512.787 1257.28 512.336 1258.18L524.069 1266.75C523.843 1267.43 523.618 1267.88 523.392 1268.56L509.177 1265.4C508.726 1266.3 508.5 1267.43 508.274 1268.33L521.587 1274.2C521.361 1274.87 521.361 1275.33 521.136 1276H506.469C506.244 1276.91 506.244 1278.03 506.244 1279.16L520.459 1282.1C520.459 1282.32 520.459 1282.77 520.459 1283C520.459 1283.22 520.459 1283.67 520.459 1283.9L506.244 1286.83C506.244 1287.96 506.469 1288.86 506.469 1289.99H521.136C521.361 1290.67 521.361 1291.35 521.587 1291.8L508.274 1297.66C508.5 1298.57 508.951 1299.69 509.177 1300.6L523.392 1297.66C523.618 1298.34 523.843 1298.79 524.069 1299.47L512.11 1308.04C512.561 1308.95 513.013 1309.85 513.69 1310.75L527.002 1304.88C527.453 1305.34 527.679 1306.01 528.13 1306.46L518.428 1317.29C519.105 1317.97 519.782 1318.87 520.459 1319.55L532.192 1310.98C532.643 1311.43 533.094 1311.88 533.546 1312.33L526.1 1324.97C527.002 1325.64 527.679 1326.09 528.582 1326.77L538.284 1315.94C538.735 1316.17 539.412 1316.62 539.863 1316.84L535.351 1330.83C536.253 1331.28 537.156 1331.74 538.058 1332.19L545.279 1319.55C545.956 1319.78 546.407 1320 547.084 1320.23L545.504 1334.67C546.407 1334.89 547.535 1335.12 548.438 1335.35L552.95 1321.36C553.627 1321.36 554.304 1321.58 554.755 1321.58L556.561 1336.02ZM564.007 1283.45C564.007 1286.61 561.525 1289.09 558.366 1289.09C555.207 1289.09 552.725 1286.61 552.725 1283.45C552.725 1280.29 555.207 1277.81 558.366 1277.81C561.525 1277.58 564.007 1280.29 564.007 1283.45ZM558.366 1254.57C573.258 1254.57 585.442 1265.85 587.021 1280.29H571.678C570.324 1274.2 564.909 1269.69 558.366 1269.69C557.012 1269.69 555.658 1269.91 554.53 1270.14L546.858 1256.82C550.243 1255.47 554.079 1254.57 558.366 1254.57ZM529.484 1283.45C529.484 1273.97 534.223 1265.4 541.217 1260.21L548.889 1273.52C546.181 1276 544.602 1279.61 544.602 1283.45C544.602 1287.28 546.181 1290.89 548.889 1293.38L541.217 1306.69C533.997 1301.5 529.259 1292.93 529.484 1283.45ZM546.633 1309.85L554.304 1296.54C555.432 1296.99 556.786 1297.21 558.14 1297.21C564.683 1297.21 570.099 1292.7 571.453 1286.61H586.796C585.216 1301.05 573.032 1312.33 558.14 1312.33C554.079 1312.33 550.243 1311.43 546.633 1309.85Z" fill="#E89F2B"/>
<path d="M594.467 1283.45C594.467 1263.37 578.222 1247.12 558.14 1247.12C538.058 1247.12 521.812 1263.37 521.812 1283.45C521.812 1303.53 538.058 1319.78 558.14 1319.78C578.222 1319.78 594.467 1303.53 594.467 1283.45ZM558.366 1289.09C555.207 1289.09 552.725 1286.61 552.725 1283.45C552.725 1280.29 555.207 1277.81 558.366 1277.81C561.524 1277.81 564.007 1280.29 564.007 1283.45C564.007 1286.61 561.524 1289.09 558.366 1289.09ZM546.632 1256.82C550.243 1255.24 554.079 1254.34 558.14 1254.34C573.032 1254.34 585.216 1265.62 586.796 1280.06H571.452C570.099 1273.97 564.683 1269.46 558.14 1269.46C556.786 1269.46 555.432 1269.69 554.304 1269.91L546.632 1256.82ZM529.484 1283.45C529.484 1273.97 534.223 1265.4 541.217 1260.21L548.889 1273.52C546.181 1276 544.602 1279.61 544.602 1283.45C544.602 1287.28 546.181 1290.9 548.889 1293.38L541.217 1306.69C533.997 1301.5 529.258 1292.93 529.484 1283.45ZM554.304 1296.54C555.432 1296.99 556.786 1297.21 558.14 1297.21C564.683 1297.21 570.099 1292.7 571.452 1286.61H586.796C585.216 1301.05 573.032 1312.33 558.14 1312.33C554.079 1312.33 550.017 1311.43 546.632 1309.85L554.304 1296.54Z" fill="#E89F2B"/>
<path d="M591.534 1283.45C591.534 1264.95 576.642 1250.05 558.366 1250.05C539.864 1250.05 524.972 1264.95 524.972 1283.22C524.972 1301.73 539.864 1316.62 558.14 1316.62C576.642 1316.62 591.534 1301.73 591.534 1283.45ZM526.1 1283.45C526.1 1265.62 540.541 1251.41 558.366 1251.41C576.191 1251.41 590.406 1265.85 590.406 1283.67C590.406 1301.5 575.966 1315.71 558.14 1315.71C540.315 1315.49 526.1 1301.05 526.1 1283.45Z" fill="#D9D9D9"/>
<path d="M552.499 1283.45C552.499 1280.29 554.981 1277.81 558.14 1277.81C561.299 1277.81 563.781 1280.29 563.781 1283.45C563.781 1286.61 561.299 1289.09 558.14 1289.09C555.207 1289.09 552.499 1286.61 552.499 1283.45ZM558.366 1254.57C573.258 1254.57 585.442 1265.85 587.022 1280.29H571.678C570.324 1274.2 564.909 1269.68 558.366 1269.68C557.012 1269.68 555.658 1269.91 554.53 1270.14L546.858 1256.82C550.243 1255.47 554.079 1254.57 558.366 1254.57ZM529.484 1283.45C529.484 1273.97 534.223 1265.4 541.217 1260.21L548.889 1273.52C546.181 1276 544.602 1279.61 544.602 1283.45C544.602 1287.28 546.181 1290.89 548.889 1293.38L541.217 1306.69C533.997 1301.5 529.259 1292.93 529.484 1283.45ZM546.633 1309.85L554.304 1296.54C555.432 1296.99 556.786 1297.21 558.14 1297.21C564.684 1297.21 570.099 1292.7 571.453 1286.61H586.796C585.216 1301.05 573.032 1312.33 558.14 1312.33C554.079 1312.33 550.243 1311.43 546.633 1309.85Z" fill="white"/>
<path d="M872 1245.32C872 1221.85 846.278 1202.67 814.463 1202.67V1287.96C846.278 1287.96 872 1268.78 872 1245.32Z" fill="#E89F2B"/>
<path d="M631.472 1313.68V1199.51C631.472 1187.33 641.4 1177.4 653.584 1177.4H816.493C828.678 1177.4 838.606 1187.33 838.606 1199.51V1313.68C838.606 1325.87 828.678 1335.8 816.493 1335.8H653.584C641.4 1335.8 631.472 1325.87 631.472 1313.68Z" fill="#DC432B"/>
<path d="M624.251 1152.35L630.569 1149.42C632.149 1148.74 632.6 1146.94 631.923 1145.36L617.031 1114.45C616.354 1112.87 614.549 1112.42 612.969 1113.09L606.652 1116.03C605.072 1116.7 604.621 1118.51 605.298 1120.09L620.19 1151C620.867 1152.35 622.672 1153.03 624.251 1152.35Z" fill="#5A9EAA"/>
<path d="M643.205 1059.62L651.779 1062.1C653.81 1062.78 654.938 1064.81 654.261 1066.84L635.759 1129.79C635.082 1131.82 633.051 1132.95 631.021 1132.27L622.446 1129.79C620.416 1129.11 619.287 1127.08 619.964 1125.05L638.467 1062.1C639.143 1060.07 641.174 1058.94 643.205 1059.62Z" fill="#488C93"/>
<path d="M603.718 1017.42L608.908 1010.2C610.036 1008.4 612.518 1008.17 614.097 1009.3L644.784 1031.19C646.589 1032.32 646.815 1034.8 645.686 1036.38L640.497 1043.6C639.369 1045.4 636.887 1045.63 635.307 1044.5L604.621 1022.61C603.041 1021.49 602.59 1019.23 603.718 1017.42Z" fill="#488C93"/>
<path d="M655.615 1051.72C656.066 1046.53 652.456 1042.02 647.266 1041.57C642.077 1041.12 637.564 1044.73 637.113 1049.92C636.661 1055.1 640.272 1059.62 645.461 1060.07C650.651 1060.52 655.164 1056.68 655.615 1051.72Z" fill="#DC432B"/>
<path d="M644.784 1344.15L644.333 1351.14C644.333 1352.72 642.753 1354.07 641.174 1354.07L606.877 1352.49C605.298 1352.49 603.944 1350.91 603.944 1349.34L604.395 1342.34C604.395 1340.76 605.975 1339.41 607.554 1339.41L641.851 1340.99C643.43 1341.21 644.784 1342.57 644.784 1344.15Z" fill="#5A9EAA"/>
<path d="M434.04 1296.09L433.589 1287.29C433.589 1285.25 431.783 1283.68 429.753 1283.68L364.318 1286.38C362.287 1286.38 360.708 1288.19 360.708 1290.22L361.159 1299.02C361.159 1301.05 362.964 1302.63 364.995 1302.63L430.43 1299.92C432.686 1299.92 434.265 1298.12 434.04 1296.09Z" fill="#488C93"/>
<path d="M347.169 1270.14L355.969 1268.78C358 1268.56 359.354 1266.53 359.128 1264.5L353.262 1227.27C353.036 1225.24 351.005 1223.88 348.974 1224.11L340.175 1225.46C338.144 1225.69 336.79 1227.72 337.016 1229.75L342.882 1266.98C343.108 1269.01 345.139 1270.59 347.169 1270.14Z" fill="#488C93"/>
<path d="M363.19 1270.81C367.251 1273.97 368.154 1279.61 364.995 1283.68C361.836 1287.74 356.195 1288.64 352.134 1285.48C348.072 1282.32 347.17 1276.68 350.329 1272.62C353.262 1268.56 359.129 1267.66 363.19 1270.81Z" fill="#DC432B"/>
<path d="M837.929 1328.58L867.487 1317.97L879.897 1337.83L871.323 1343.92L864.328 1332.19L849.436 1337.38L851.016 1350.24L840.636 1354.07L837.929 1328.58Z" fill="#DC432B"/>
<path d="M386.431 1358.13L365.898 1354.3C363.867 1353.85 362.514 1352.04 362.965 1350.01L370.637 1308.49C371.088 1306.46 372.893 1305.11 374.924 1305.56L395.457 1309.4C397.487 1309.85 398.841 1311.65 398.39 1313.68L390.718 1355.2C390.492 1357.01 388.462 1358.36 386.431 1358.13Z" fill="#5A9EAA"/>
<path d="M382.369 1321.81C363.416 1318.2 345.139 1330.83 341.529 1349.79L410.348 1362.42C413.959 1343.47 401.323 1325.42 382.369 1321.81Z" fill="#D18C2B"/>
<path d="M290.761 1286.16L305.201 1274.42C306.781 1273.07 309.037 1273.3 310.391 1274.88L337.016 1307.59C338.37 1309.17 338.144 1311.43 336.565 1312.78L322.124 1324.52C320.545 1325.87 318.288 1325.64 316.934 1324.06L290.309 1291.35C288.956 1289.77 289.181 1287.51 290.761 1286.16Z" fill="#488C93"/>
<path d="M260.3 1256.6L282.412 1238.55C283.991 1237.19 286.248 1237.42 287.602 1239L314.227 1271.72C315.581 1273.3 315.355 1275.55 313.776 1276.91L291.663 1294.96C290.084 1296.31 287.827 1296.08 286.473 1294.51L259.848 1261.79C258.495 1260.21 258.72 1257.95 260.3 1256.6Z" fill="#5A9EAA"/>
<path d="M250.823 1315.49C231.644 1314.14 214.721 1328.58 213.367 1347.76L283.089 1352.95C284.668 1333.77 270.002 1316.84 250.823 1315.49Z" fill="#D18C2B"/>
<path d="M732.782 1209.89C736.167 1215.76 743.162 1219.82 748.577 1223.66C754.895 1228.17 761.213 1234.04 768.433 1236.74C772.043 1238.1 774.299 1233.13 771.817 1230.65C766.853 1225.46 759.407 1221.85 753.09 1218.01C747.223 1214.4 740.68 1208.99 733.685 1208.09C733.008 1208.31 732.331 1208.99 732.782 1209.89Z" fill="white"/>
<path d="M739.777 1240.58C746.321 1238.1 751.51 1232 756.474 1227.04C760.987 1222.53 769.336 1216.89 770.689 1210.34C771.141 1207.86 769.336 1205.83 766.854 1206.51C760.31 1207.86 754.895 1216.44 750.382 1220.95C745.644 1225.91 739.552 1231.33 737.295 1237.87C736.618 1239.45 738.198 1241.03 739.777 1240.58Z" fill="white"/>
<path d="M732.782 1293.83C736.167 1299.7 743.162 1303.76 748.577 1307.59C754.895 1312.11 761.213 1317.97 768.433 1320.68C772.043 1322.03 774.299 1317.07 771.817 1314.59C766.853 1309.4 759.407 1305.79 753.09 1301.95C747.223 1298.34 740.68 1292.93 733.685 1292.02C733.008 1292.25 732.331 1292.93 732.782 1293.83Z" fill="white"/>
<path d="M739.777 1324.51C746.321 1322.03 751.51 1315.94 756.474 1310.98C760.987 1306.46 769.336 1300.82 770.689 1294.28C771.141 1291.8 769.336 1289.77 766.854 1290.44C760.31 1291.8 754.895 1300.37 750.382 1304.88C745.644 1309.85 739.552 1315.26 737.295 1321.81C736.618 1323.39 738.198 1324.97 739.777 1324.51Z" fill="white"/>
<path d="M551.596 1082.18C549.114 1081.05 546.632 1079.7 544.15 1078.57C545.73 1073.16 547.535 1067.97 549.114 1062.55C549.34 1061.87 550.243 1061.2 550.919 1060.52C553.853 1058.49 555.658 1055.78 557.237 1052.62C564.909 1037.05 572.806 1021.49 580.704 1005.69C581.155 1004.79 581.606 1004.11 582.509 1002.76C579.801 1001.63 577.545 1000.73 575.514 999.599C574.837 999.373 574.611 998.019 574.611 997.117C574.837 996.214 575.514 995.312 575.965 994.183C576.642 992.83 577.319 992.378 578.898 992.83C580.027 993.055 582.057 992.378 582.283 991.476C582.734 990.573 582.057 988.768 581.155 987.865C580.027 986.737 580.027 986.06 580.704 984.932C587.698 971.168 594.467 957.179 601.462 943.415C603.267 940.031 605.975 938.226 609.811 937.774C616.354 937.323 621.318 939.805 624.703 945.22C626.733 948.379 626.959 951.989 625.154 955.374C618.385 969.138 611.39 982.676 604.621 996.44C603.944 997.794 603.267 998.47 601.462 998.019C600.559 997.793 598.754 998.47 598.077 999.373C597.626 1000.05 598.078 1002.08 598.754 1002.53C600.785 1003.89 600.334 1005.47 599.206 1007.04C598.529 1008.17 598.077 1009.3 596.949 1011.11C594.467 1009.3 591.985 1007.72 589.278 1005.69C587.698 1009.08 586.57 1011.56 585.442 1013.81C577.996 1028.71 570.55 1043.37 563.329 1058.26C562.653 1059.62 561.976 1061.42 562.201 1063C562.201 1066.16 561.299 1068.87 559.268 1071.35C556.335 1075.19 554.078 1078.8 551.596 1082.18ZM591.308 986.963C591.76 986.512 592.437 985.609 592.888 984.707C598.529 973.425 604.17 962.143 609.811 950.861C610.036 950.41 610.713 949.733 610.487 949.056C610.262 947.928 610.036 946.574 609.359 946.123C608.457 945.672 607.103 946.123 605.975 946.574C605.523 946.8 605.298 947.702 604.847 948.379C599.206 959.435 593.79 970.492 588.149 981.773C587.924 982.45 587.473 983.127 587.247 983.804C587.021 985.835 588.826 987.64 591.308 986.963ZM600.785 991.701C601.236 991.25 601.913 990.573 602.365 989.671C608.231 978.163 613.872 966.881 619.513 955.374C619.739 954.923 619.964 954.246 620.19 953.569C620.416 951.538 618.385 949.733 616.58 950.861C615.677 951.312 615 952.215 614.549 953.118C608.908 964.399 603.267 975.681 597.626 986.963C597.401 987.64 596.949 988.317 596.949 988.994C596.498 990.799 598.529 992.378 600.785 991.701Z" fill="white"/>
<path d="M597.626 1026L615 999.598L598.529 982.901L590.631 989.67L600.334 999.373L591.759 1012.69L579.801 1007.95L573.483 1017.2L597.626 1026Z" fill="#DC432B"/>
<path d="M579.124 1128.66H474.429C473.075 1128.66 471.947 1127.53 471.947 1126.18V1117.38C471.947 1116.03 473.075 1114.9 474.429 1114.9H579.124C580.478 1114.9 581.606 1116.03 581.606 1117.38V1126.18C581.606 1127.53 580.478 1128.66 579.124 1128.66Z" fill="#BC2F20"/>
<path d="M531.289 1122.57C541.894 1089.4 522.941 1053.07 489.772 1042.47C486.388 1041.34 484.808 1046.76 488.193 1047.88C518.428 1057.36 535.576 1090.76 525.874 1120.99C524.746 1124.6 530.161 1125.96 531.289 1122.57Z" fill="white"/>
<path d="M543.473 1107C547.083 1107 547.083 1101.36 543.473 1101.36C539.863 1101.59 539.863 1107 543.473 1107Z" fill="white"/>
<path d="M506.92 1080.83C510.53 1080.83 510.53 1075.19 506.92 1075.19C503.31 1075.41 503.31 1080.83 506.92 1080.83Z" fill="white"/>
<path d="M487.967 1081.96C484.808 1081.96 481.649 1080.6 479.844 1078.12C479.167 1077.22 478.716 1076.09 478.49 1074.96C478.264 1074.96 478.264 1074.96 478.039 1074.96C475.106 1074.28 472.849 1071.58 472.398 1068.42C472.172 1067.06 472.172 1065.71 472.398 1064.13C471.721 1063.91 471.27 1063.68 470.593 1063.45C470.142 1063.23 467.208 1061.87 466.306 1058.49C465.854 1057.14 465.854 1055.56 466.306 1054.2C464.049 1053.07 461.793 1051.27 460.665 1048.79C459.311 1046.31 459.311 1043.6 460.665 1040.89C461.116 1040.21 461.793 1039.99 462.47 1040.21C463.147 1040.66 463.372 1041.34 463.147 1042.02C462.019 1044.27 462.47 1046.08 463.147 1047.43C464.049 1049.01 465.403 1050.59 467.208 1051.27C467.66 1050.37 468.111 1049.46 468.788 1048.34C470.367 1045.85 474.654 1044.27 477.136 1044.73C478.941 1044.95 480.07 1045.85 480.521 1047.21C480.972 1048.56 480.521 1049.92 479.393 1051.27C477.136 1053.53 472.624 1055.11 469.013 1054.65C468.788 1055.78 468.788 1056.68 469.013 1057.36C469.69 1059.62 471.721 1060.52 471.721 1060.52C472.172 1060.75 472.624 1060.97 473.075 1060.97C473.3 1060.52 473.526 1060.07 473.526 1059.62C474.88 1056.68 476.459 1055.11 478.49 1054.43C480.07 1053.98 481.875 1054.2 483.228 1055.33C484.357 1056.23 484.808 1057.36 484.808 1058.72C484.582 1060.52 483.003 1062.33 480.746 1063C479.167 1063.45 477.136 1063.91 475.106 1063.91C474.88 1065.03 474.88 1066.16 474.88 1067.29C475.331 1069.32 476.459 1070.9 478.039 1071.58C478.039 1071.35 478.039 1071.13 478.264 1070.9C478.716 1068.64 480.07 1066.61 481.875 1065.48C483.905 1064.13 486.839 1064.13 488.418 1066.16C489.546 1067.74 489.095 1070 487.967 1071.35C487.064 1072.48 485.485 1073.16 484.131 1073.83C483.228 1074.28 482.326 1074.51 481.198 1074.74C481.423 1075.41 481.649 1075.86 482.1 1076.32C483.905 1078.8 487.967 1079.93 491.126 1078.35C491.803 1078.12 492.705 1078.35 492.931 1079.02C493.156 1079.7 492.931 1080.6 492.254 1080.83C490.9 1081.73 489.321 1081.96 487.967 1081.96ZM485.034 1067.52C484.582 1067.52 483.905 1067.74 483.454 1067.97C482.326 1068.64 481.423 1070 481.198 1071.58V1071.8C481.875 1071.58 482.552 1071.35 483.228 1071.13C484.357 1070.67 485.259 1070.22 485.936 1069.55C486.387 1068.87 486.613 1068.19 486.162 1067.74C485.936 1067.52 485.485 1067.52 485.034 1067.52ZM480.07 1057.14C479.844 1057.14 479.618 1057.14 479.393 1057.14C478.039 1057.59 477.136 1058.72 476.008 1060.97C476.008 1061.2 476.008 1061.2 475.782 1061.2C477.136 1060.97 478.49 1060.75 479.618 1060.3C480.746 1060.07 481.649 1059.17 481.875 1058.49C481.875 1058.04 481.649 1057.81 481.423 1057.59C481.198 1057.36 480.521 1057.14 480.07 1057.14ZM469.69 1051.95C472.172 1051.95 475.557 1051.04 477.136 1049.46C477.813 1048.79 477.588 1048.34 477.588 1048.11C477.588 1047.89 477.136 1047.66 476.459 1047.66C474.429 1047.43 471.721 1048.56 470.818 1050.14C470.367 1050.59 469.916 1051.27 469.69 1051.95Z" fill="white"/>
<path d="M369.959 1177.85C369.507 1177.85 369.282 1177.63 368.83 1177.4C365.446 1173.56 364.995 1167.47 367.928 1163.41C368.83 1162.28 369.733 1161.38 370.861 1160.7C370.861 1160.48 370.861 1160.25 370.861 1160.25C370.636 1157.09 372.666 1153.71 375.825 1152.13C377.179 1151.45 378.758 1151 380.338 1150.78C380.338 1150.1 380.338 1149.2 380.338 1148.52C380.338 1147.84 381.015 1144.46 384.174 1142.43C385.528 1141.52 387.107 1141.07 388.912 1140.85C389.138 1137.91 390.492 1134.98 392.748 1132.95C395.004 1130.69 397.938 1129.79 400.871 1130.24C401.548 1130.47 402.225 1131.14 401.999 1131.82C401.773 1132.5 401.322 1133.18 400.42 1132.95C397.712 1132.5 395.681 1133.85 394.553 1134.75C392.974 1136.33 391.845 1138.37 391.62 1140.62C392.748 1140.85 393.876 1141.07 395.23 1141.3C398.389 1142.2 401.322 1146.04 401.773 1148.97C401.999 1150.78 401.548 1152.35 400.194 1153.26C398.84 1154.16 397.261 1154.16 395.681 1153.48C392.522 1151.9 389.363 1147.39 388.686 1143.55C387.558 1143.78 386.43 1144.01 385.528 1144.68C383.271 1146.26 383.046 1148.74 383.046 1148.74C383.046 1149.42 383.046 1149.87 383.046 1150.55C383.497 1150.55 384.174 1150.55 384.851 1150.78C388.235 1151.23 390.717 1152.35 392.071 1154.16C393.199 1155.51 393.425 1157.54 392.748 1159.35C392.297 1160.7 391.168 1161.83 389.815 1162.06C387.784 1162.51 385.753 1161.38 383.948 1159.12C382.82 1157.54 381.692 1155.51 381.015 1153.26C379.435 1153.48 378.307 1153.71 377.179 1154.39C375.148 1155.51 373.569 1157.54 373.794 1159.57C374.02 1159.57 374.471 1159.35 374.923 1159.35C377.405 1159.12 380.112 1159.8 381.917 1161.15C383.948 1162.73 385.076 1165.89 383.497 1167.92C382.143 1169.73 379.661 1169.95 377.856 1169.28C376.276 1168.6 375.148 1167.47 374.02 1166.12C373.343 1165.22 372.666 1164.31 371.989 1163.19C371.313 1163.64 370.861 1164.09 370.41 1164.76C368.379 1167.7 368.605 1172.44 371.312 1175.14C371.764 1175.82 371.764 1176.5 371.312 1177.17C370.636 1177.85 370.41 1177.85 369.959 1177.85ZM374.471 1162.51C374.923 1163.41 375.374 1164.09 376.051 1164.76C376.953 1165.89 377.856 1166.8 378.759 1167.02C379.435 1167.25 380.564 1167.25 381.015 1166.57C381.466 1165.89 381.015 1164.31 379.887 1163.64C378.759 1162.51 376.953 1162.06 375.148 1162.28C374.923 1162.51 374.697 1162.51 374.471 1162.51ZM383.948 1153.71C384.625 1155.29 385.528 1156.64 386.204 1157.77C386.881 1158.67 388.01 1159.8 389.138 1159.57C389.589 1159.35 390.04 1158.9 390.04 1158.67C390.266 1157.77 390.266 1156.87 389.815 1156.19C388.912 1155.06 387.107 1154.16 384.625 1153.93C384.399 1153.71 384.174 1153.71 383.948 1153.71ZM391.845 1143.78C392.522 1146.71 395.004 1150.1 397.261 1151C398.389 1151.45 398.84 1151.23 399.066 1151C399.291 1150.78 399.517 1150.32 399.291 1149.65C398.84 1147.39 396.584 1144.91 394.779 1144.23C393.65 1144.01 392.748 1144.01 391.845 1143.78Z" fill="white"/>
<path d="M556.786 1112.64C554.981 1112.64 553.176 1112.19 551.37 1111.51C550.694 1111.29 550.468 1110.39 550.693 1109.71C550.919 1109.03 551.822 1108.81 552.499 1109.03C556.56 1111.06 561.975 1109.71 564.457 1106.32C565.134 1105.65 565.36 1104.52 565.585 1103.62C564.232 1103.39 562.652 1102.94 561.524 1102.49C559.719 1101.81 558.139 1100.91 556.786 1099.56C555.432 1097.98 554.755 1095.27 556.334 1093.24C558.139 1090.76 561.75 1090.98 564.006 1092.56C566.262 1093.91 567.842 1096.4 568.293 1099.33C568.293 1099.78 568.519 1100.23 568.519 1100.68C571.001 1100.01 572.806 1097.75 573.483 1094.82C573.708 1093.24 573.708 1091.66 573.257 1089.85C570.324 1089.85 567.842 1089.18 565.811 1088.5C562.878 1087.6 561.073 1085.57 560.847 1083.31C560.621 1081.73 561.298 1080.38 562.652 1079.25C564.232 1077.89 566.488 1077.44 568.293 1078.12C570.775 1079.02 572.806 1081.05 574.385 1084.66C574.611 1085.34 575.062 1086.02 575.288 1086.69C575.965 1086.47 576.867 1086.24 577.544 1086.02C577.77 1085.79 580.477 1084.66 581.38 1081.73C581.831 1080.38 581.831 1079.02 581.38 1077.67C576.867 1078.35 570.775 1076.54 568.067 1073.61C566.262 1071.8 566.262 1070 566.714 1068.87C567.165 1067.06 568.744 1066.16 570.775 1065.94C573.934 1065.48 579.124 1067.29 581.154 1070.45C582.057 1071.8 582.734 1073.16 583.185 1074.28C585.442 1073.16 587.698 1071.13 588.826 1068.87C589.729 1067.29 590.406 1064.58 588.826 1061.65C588.375 1060.97 588.826 1060.07 589.503 1059.84C590.18 1059.62 591.082 1059.84 591.308 1060.52C592.887 1063.68 592.887 1067.06 591.308 1070.22C589.729 1073.16 587.021 1075.86 584.088 1076.99C584.539 1079.02 584.539 1081.05 584.088 1082.63C582.96 1086.92 579.124 1088.5 578.672 1088.72C577.77 1089.18 576.867 1089.4 575.965 1089.63C576.416 1091.66 576.416 1093.46 576.19 1095.27C575.514 1099.33 572.58 1102.49 569.196 1103.39C568.97 1103.39 568.744 1103.39 568.519 1103.62C568.293 1105.2 567.616 1106.55 566.714 1107.9C564.683 1110.84 560.847 1112.64 556.786 1112.64ZM560.396 1093.91C559.719 1093.91 559.042 1094.14 558.816 1094.59C558.139 1095.27 558.591 1096.62 559.268 1097.52C560.17 1098.43 561.524 1099.1 562.878 1099.78C564.006 1100.23 565.134 1100.68 566.262 1100.68C566.262 1100.46 566.262 1100.01 566.037 1099.78C565.586 1097.75 564.457 1095.95 562.878 1094.82C562.201 1094.37 561.298 1093.91 560.396 1093.91ZM566.939 1080.83C566.262 1080.83 565.36 1081.05 564.683 1081.5C564.232 1081.73 563.78 1082.41 563.78 1083.08C564.006 1084.44 565.585 1085.34 566.939 1085.79C568.519 1086.24 570.55 1086.92 572.806 1086.92C572.58 1086.69 572.58 1086.24 572.355 1085.79C571.001 1082.86 569.647 1081.28 567.842 1080.83C567.391 1080.83 567.165 1080.83 566.939 1080.83ZM572.129 1068.42C571.903 1068.42 571.678 1068.42 571.452 1068.42C570.549 1068.64 569.873 1068.87 569.647 1069.55C569.647 1069.77 569.421 1070.45 570.324 1071.58C572.355 1073.83 577.093 1075.19 580.703 1074.96C580.252 1074.06 579.575 1072.93 578.898 1071.8C577.77 1070 574.611 1068.42 572.129 1068.42Z" fill="white"/>
<path d="M520.007 1120.09C521.587 1107.68 515.72 1095.04 503.536 1090.08C488.869 1083.99 475.105 1093.69 466.306 1104.75C452.767 1121.44 443.742 1143.1 437.424 1163.41C429.301 1189.58 428.173 1218.47 409.671 1240.35C407.415 1243.06 411.25 1247.12 413.732 1244.41C431.558 1223.2 434.04 1196.81 441.26 1171.08C445.998 1153.93 452.767 1137.24 461.793 1121.89C466.757 1113.32 472.623 1103.62 481.198 1098.2C497.895 1087.6 517.074 1101.14 514.592 1120.09C513.915 1123.7 519.556 1123.7 520.007 1120.09Z" fill="white"/>
<path d="M605.524 1143.55C605.524 1145.81 605.298 1147.84 605.524 1150.1C605.524 1150.55 606.201 1150.55 606.201 1150.1C606.426 1147.84 606.201 1145.81 606.201 1143.55C606.201 1143.1 605.524 1143.1 605.524 1143.55Z" fill="#BC2F20"/>
<path d="M449.608 1154.61C447.578 1158 446.901 1162.51 448.255 1166.34C448.48 1167.02 449.608 1167.25 449.834 1166.34C450.511 1162.73 450.737 1158.67 450.511 1155.06C450.511 1154.39 450.06 1154.16 449.608 1154.61Z" fill="#BC2F20"/>
<path d="M602.365 1152.13C602.816 1152.81 603.267 1153.26 603.718 1153.71C603.944 1153.93 604.395 1153.71 604.17 1153.26C603.719 1152.58 603.493 1152.13 602.816 1151.68C602.59 1151.23 602.139 1151.68 602.365 1152.13Z" fill="#BC2F20"/>
<path d="M609.359 1150.55C609.133 1152.81 609.359 1155.06 609.359 1157.32C609.359 1159.57 609.133 1161.83 609.359 1164.09C609.359 1164.54 610.262 1164.76 610.487 1164.31C610.939 1160.03 610.487 1154.61 609.359 1150.55C609.359 1150.32 609.359 1150.32 609.359 1150.55Z" fill="#BC2F20"/>
<path d="M439.004 1308.72C438.779 1310.07 438.553 1311.2 438.779 1312.56C438.779 1313.23 439.681 1313.23 439.681 1312.56C439.907 1311.2 439.681 1310.07 439.455 1308.72C439.455 1308.49 439.004 1308.49 439.004 1308.72Z" fill="#BC2F20"/>
<path d="M441.712 1309.85C441.486 1311.88 441.26 1313.91 441.486 1315.94C441.486 1316.39 442.163 1316.39 442.389 1315.94C442.84 1313.91 442.389 1311.88 442.163 1309.85C442.389 1309.4 441.712 1309.4 441.712 1309.85Z" fill="#BC2F20"/>
<path d="M444.87 1316.62C444.645 1317.97 444.87 1319.78 445.322 1321.13C445.547 1321.58 446.224 1321.58 446.224 1320.9C446.224 1319.55 445.998 1317.75 445.322 1316.62C445.096 1316.39 444.87 1316.39 444.87 1316.62Z" fill="#BC2F20"/>
<path d="M439.681 1318.2C439.681 1319.1 440.132 1319.78 440.583 1320.68C440.809 1320.9 441.26 1320.68 441.034 1320.45C440.809 1319.33 440.583 1318.65 439.681 1318.2C439.681 1317.97 439.681 1317.97 439.681 1318.2Z" fill="#BC2F20"/>
<path d="M525.197 1175.37C525.197 1176.95 524.746 1178.75 525.423 1180.11C525.648 1180.78 526.551 1180.78 526.777 1180.11C527.228 1178.53 527.002 1176.95 527.002 1175.37C526.777 1174.24 525.423 1174.24 525.197 1175.37Z" fill="#BC2F20"/>
<path d="M526.776 1175.37C526.551 1176.5 526.325 1177.4 526.776 1178.3C527.002 1178.98 527.904 1178.98 528.13 1178.3C528.356 1177.17 528.13 1176.27 528.13 1175.37C527.904 1174.47 527.002 1174.47 526.776 1175.37Z" fill="#BC2F20"/>
<path d="M528.13 1167.92C528.582 1170.86 528.356 1174.02 529.033 1176.72C529.033 1177.17 529.71 1177.17 529.71 1176.72C530.612 1174.02 529.484 1170.41 528.807 1167.7C528.582 1167.25 527.905 1167.47 528.13 1167.92Z" fill="#BC2F20"/>
<path d="M525.648 1186.88C525.422 1188.01 525.197 1189.36 526.325 1190.26C526.551 1190.49 527.228 1190.26 527.228 1189.81C527.228 1188.91 526.776 1188.23 527.002 1187.1C526.776 1186.43 525.648 1185.97 525.648 1186.88Z" fill="#BC2F20"/>
<path d="M445.773 1203.8C445.999 1205.15 445.999 1206.28 446.901 1207.18C447.127 1207.64 447.804 1207.41 447.804 1206.96C447.804 1205.6 447.352 1204.7 446.675 1203.57C446.45 1203.12 445.773 1203.35 445.773 1203.8Z" fill="#BC2F20"/>
<path d="M447.578 1201.99C448.255 1202.67 448.255 1203.12 448.481 1204.03C448.706 1204.48 449.158 1204.7 449.383 1204.25C449.834 1203.12 449.383 1201.99 448.481 1201.32C447.804 1200.42 446.901 1201.32 447.578 1201.99Z" fill="#BC2F20"/>
<path d="M468.788 1137.01C468.562 1139.04 468.337 1140.85 468.562 1142.65C468.562 1143.1 469.239 1143.1 469.465 1142.65C469.69 1140.62 469.465 1138.82 469.239 1137.01C469.239 1136.56 468.788 1136.56 468.788 1137.01Z" fill="#BC2F20"/>
<path d="M470.367 1138.36C470.367 1140.62 470.141 1143.33 470.593 1145.59C470.593 1146.04 471.269 1146.04 471.495 1145.59C472.398 1143.33 471.721 1140.62 471.044 1138.36C470.818 1137.91 470.367 1137.91 470.367 1138.36Z" fill="#BC2F20"/>
<path d="M492.48 1255.02C491.126 1258.4 490.901 1262.01 492.706 1265.17C492.931 1265.62 493.608 1265.4 493.383 1264.95C492.706 1261.79 492.254 1258.63 493.383 1255.47C493.608 1254.57 492.706 1254.34 492.48 1255.02Z" fill="#BC2F20"/>
<path d="M486.387 1254.12C486.387 1254.79 486.387 1255.47 486.387 1256.15C486.613 1256.6 487.064 1256.6 487.29 1256.15C487.515 1255.47 487.515 1255.02 487.29 1254.12C487.29 1253.44 486.387 1253.44 486.387 1254.12Z" fill="#BC2F20"/>
<path d="M583.411 1200.41C582.959 1201.99 582.734 1203.12 582.734 1204.7C582.734 1205.15 583.411 1205.38 583.636 1204.93C584.313 1203.57 584.539 1202.22 584.765 1200.64C584.99 1199.74 583.636 1199.51 583.411 1200.41Z" fill="#BC2F20"/>
<path d="M585.442 1205.15C585.216 1206.73 584.539 1208.31 584.313 1209.67C584.313 1210.12 584.765 1210.79 585.216 1210.12C586.344 1208.76 586.57 1206.73 586.119 1204.93C586.119 1204.7 585.667 1204.7 585.442 1205.15Z" fill="#BC2F20"/>
<path d="M664.189 1200.87C663.963 1201.54 663.737 1201.77 663.512 1202.45C663.512 1202.9 663.512 1203.57 663.963 1203.8C664.414 1204.25 664.64 1204.25 665.317 1204.25C665.768 1204.25 666.219 1203.8 666.219 1203.35C666.445 1202.67 666.445 1202.45 666.445 1201.77C666.671 1200.19 664.866 1199.74 664.189 1200.87Z" fill="#BC2F20"/>
<path d="M657.871 1205.83C656.969 1206.96 656.518 1208.09 657.195 1209.21C657.42 1209.67 658.097 1209.67 658.323 1208.99C658.548 1208.09 658.323 1207.18 658.548 1206.06C658.774 1205.83 658.097 1205.38 657.871 1205.83Z" fill="#BC2F20"/>
<path d="M812.657 1196.35C812.883 1197.26 812.657 1197.93 812.432 1198.84C812.206 1199.29 812.883 1199.51 813.109 1199.06C813.786 1198.16 813.785 1197.26 813.785 1196.13C813.785 1195.45 812.432 1195.68 812.657 1196.35Z" fill="#BC2F20"/>
<path d="M816.268 1197.71C816.042 1198.84 816.042 1199.51 816.268 1200.64C816.268 1200.87 816.719 1200.87 816.945 1200.64C817.17 1199.74 816.945 1198.84 816.945 1197.71C816.719 1197.48 816.268 1197.48 816.268 1197.71Z" fill="#BC2F20"/>
<path d="M818.75 1299.02C818.073 1300.15 817.171 1301.05 816.719 1302.18C816.494 1302.63 817.17 1302.85 817.396 1302.63C818.299 1301.73 818.75 1300.37 819.201 1299.24C819.201 1298.79 818.976 1298.79 818.75 1299.02Z" fill="#BC2F20"/>
<path d="M812.883 1296.08C812.883 1297.44 812.883 1298.57 812.883 1299.92C812.883 1300.37 813.56 1300.37 813.56 1299.92C813.56 1298.57 813.56 1297.44 813.56 1296.08C813.56 1295.86 812.883 1295.86 812.883 1296.08Z" fill="#BC2F20"/>
<path d="M675.019 1305.56C675.696 1307.59 677.276 1310.3 679.306 1311.43C679.758 1311.65 680.66 1311.2 680.434 1310.53C679.758 1308.49 677.953 1306.24 676.373 1304.88C675.696 1304.43 674.794 1304.88 675.019 1305.56Z" fill="#BC2F20"/>
<path d="M669.604 1311.88C670.055 1313.23 670.506 1314.59 671.409 1315.72C671.86 1316.17 672.312 1315.72 672.312 1315.26C672.086 1313.91 671.409 1312.78 670.732 1311.43C670.506 1310.75 669.378 1311.2 669.604 1311.88Z" fill="#BC2F20"/>
<path d="M793.027 1246.44C791.448 1247.35 790.545 1249.83 792.35 1250.96C792.576 1251.18 793.253 1250.96 793.253 1250.51C793.479 1249.38 793.027 1248.48 793.93 1247.35C794.607 1246.67 793.704 1245.99 793.027 1246.44Z" fill="#BC2F20"/>
<path d="M659.224 960.563C659.901 961.917 660.578 963.271 661.255 964.625C661.255 964.851 661.706 964.851 661.932 964.851C663.06 964.851 664.188 964.851 665.316 964.851C665.768 964.851 666.219 964.625 666.444 964.174C667.121 963.271 667.573 962.369 668.024 961.24C668.25 960.789 668.701 960.563 669.152 960.789C670.732 961.24 672.085 961.692 673.665 962.143C673.665 963.497 673.665 964.851 673.665 966.204C673.665 966.881 673.665 967.333 674.567 967.784C675.244 968.009 675.921 968.461 676.372 968.912C677.501 969.815 678.403 969.589 679.306 968.912C680.208 968.235 681.111 967.784 681.788 967.333C683.142 968.686 684.495 969.815 685.849 970.943C685.172 972.297 684.495 973.425 683.593 974.553C683.142 975.23 683.142 975.681 683.593 976.132C684.044 976.809 684.495 977.486 684.721 978.163C685.172 979.291 685.849 979.517 686.752 979.517C687.654 979.517 688.557 979.517 689.459 979.517C690.136 979.517 690.362 979.743 690.588 980.419C690.813 981.773 691.264 983.127 691.716 984.255C691.716 984.481 691.716 984.481 691.716 984.707C690.362 985.383 689.234 986.06 687.88 986.737C687.654 986.963 687.429 987.414 687.429 987.64C687.429 988.994 686.977 990.573 687.654 991.476C688.331 992.604 689.911 993.055 691.039 993.732C691.49 993.958 691.716 994.409 691.49 994.86C691.039 995.988 690.813 997.342 690.362 998.696C690.136 999.373 689.911 999.599 689.234 999.373C688.106 999.373 686.977 999.373 686.075 999.147C685.398 999.147 685.172 999.373 684.947 999.824C684.495 1000.73 683.818 1001.85 683.367 1002.76C683.142 1003.21 682.916 1003.66 683.367 1004.11C684.044 1005.24 684.721 1006.37 685.398 1007.72C684.947 1008.17 684.495 1008.4 684.27 1008.85C683.818 1009.3 683.367 1009.53 683.142 1009.98C681.562 1011.56 681.562 1011.56 679.757 1010.43C678.178 1009.3 677.049 1009.3 675.47 1010.2C673.665 1011.11 672.988 1012.23 673.214 1014.26C673.439 1016.3 673.214 1016.3 671.408 1016.75C670.28 1016.97 668.926 1017.65 668.024 1017.42C667.121 1017.2 666.896 1015.62 666.444 1014.72C665.993 1013.81 665.542 1013.36 664.414 1013.59C663.511 1013.81 662.609 1013.59 661.706 1013.59C661.029 1013.59 660.804 1013.81 660.352 1014.26C659.675 1015.39 658.998 1016.52 658.322 1017.65C656.742 1017.2 655.388 1016.75 653.809 1016.3C653.132 1016.07 653.132 1015.84 653.132 1015.17C653.132 1014.04 653.132 1013.14 653.132 1012.01C653.132 1011.56 652.906 1011.11 652.455 1010.88C651.552 1010.2 650.424 1009.53 649.296 1009.08C649.07 1008.85 648.394 1008.85 648.168 1009.08C647.265 1009.53 646.137 1010.2 645.235 1010.65C645.009 1010.88 644.558 1010.88 644.332 1010.65C643.204 1009.53 642.076 1008.4 640.948 1007.04C641.624 1005.92 642.301 1004.79 642.978 1003.66C643.204 1003.43 643.204 1002.76 642.978 1002.53C642.527 1001.4 641.85 1000.5 641.173 999.373C640.948 998.922 640.496 998.696 640.045 998.696C638.691 998.696 637.563 998.696 636.435 998.696C636.435 998.47 636.209 998.47 636.209 998.47C635.984 997.568 635.758 996.44 635.307 995.537C634.855 993.506 634.855 993.506 636.66 992.604C638.24 991.927 639.142 990.799 638.691 988.994C638.466 988.542 638.691 987.865 638.691 987.414C638.917 986.512 638.466 985.835 637.563 985.609C636.66 985.158 635.307 984.707 635.081 984.03C634.855 983.353 635.532 981.999 635.758 981.096C636.435 979.066 636.435 979.066 638.466 979.066C638.917 979.066 639.368 979.066 640.045 979.066C640.722 979.066 640.948 978.84 641.173 978.389C641.85 977.261 642.527 976.358 642.978 975.23C643.204 975.004 643.204 974.327 642.978 974.102C642.301 972.973 641.624 971.845 641.399 971.168C642.753 969.589 643.881 968.235 645.009 966.881C645.912 967.558 646.814 968.009 647.717 968.461C648.619 969.138 649.296 969.363 650.424 968.461C651.101 968.009 652.004 967.558 652.681 967.107C653.358 966.881 653.583 966.43 653.583 965.753C653.583 964.851 653.583 963.722 653.583 962.82C653.583 962.143 653.809 961.917 654.486 961.692C655.84 961.466 657.193 961.015 658.322 960.563C658.773 960.563 658.998 960.563 659.224 960.563ZM680.208 989.445C680.208 979.968 672.762 972.297 663.511 972.297C654.26 972.297 646.588 979.968 646.588 989.219C646.588 998.47 654.034 1005.92 663.511 1005.92C672.311 1005.92 679.983 998.47 680.208 989.445Z" fill="white"/>
<path d="M449.157 972.296C447.803 974.101 448.705 976.358 450.962 976.809C451.639 977.035 452.316 977.035 452.993 977.26C457.054 978.163 457.054 978.163 457.054 982.45C457.054 983.578 456.828 984.255 455.7 984.481C454.346 984.932 452.993 985.383 451.639 985.834C449.382 986.737 448.705 988.993 450.285 990.798C450.736 991.25 451.187 991.927 451.639 992.378C454.346 995.311 454.346 995.311 451.864 998.696C451.187 999.598 450.511 1000.05 449.382 999.598C448.029 999.147 446.449 998.696 445.095 998.244C443.29 997.793 441.259 999.373 441.259 1001.18C441.259 1002.76 441.485 1004.34 441.711 1006.14C441.711 1006.59 441.711 1007.27 441.485 1007.5C439.906 1008.17 438.326 1009.07 436.747 1009.3C436.07 1009.3 435.393 1008.17 434.716 1007.27C434.265 1006.59 433.813 1006.14 433.362 1005.46C431.331 1002.98 429.301 1002.98 427.496 1005.69C426.819 1006.82 426.142 1007.95 425.465 1009.07C425.239 1009.3 424.788 1009.98 424.562 1009.98C422.983 1009.75 421.178 1009.3 419.824 1008.62C419.373 1008.4 419.373 1006.82 419.147 1005.92C418.921 1005.01 419.147 1003.89 419.147 1002.98C419.147 1000.73 416.891 999.147 414.86 1000.05C413.506 1000.73 412.152 1001.18 410.799 1001.85C410.347 1002.08 409.67 1002.08 409.445 1001.85C408.317 1000.73 406.963 999.373 406.511 997.793C406.286 997.116 407.414 995.988 408.091 994.86C408.317 994.409 408.768 993.957 408.993 993.28C410.799 990.798 409.896 988.768 406.963 987.865C405.609 987.639 404.481 987.188 403.127 986.963C402.676 986.963 402.224 986.511 402.224 986.286C401.999 984.481 401.773 982.675 401.999 981.096C401.999 980.419 403.578 980.193 404.481 979.742C405.383 979.291 406.511 979.065 407.64 978.614C409.219 977.937 409.67 975.455 408.768 974.327C407.414 972.747 406.06 971.168 404.706 969.589C405.609 968.235 406.286 966.881 407.414 965.527C407.64 965.076 408.542 964.85 409.219 964.85C410.799 965.076 412.152 965.753 413.732 965.978C415.763 966.655 417.568 965.076 417.342 962.819C417.342 962.143 417.116 961.691 417.116 961.014C416.891 956.502 416.891 956.502 421.403 955.373C421.855 955.148 422.757 955.599 423.209 956.05C424.337 957.404 425.239 958.758 426.367 960.112C426.819 960.563 427.496 960.789 428.173 961.014C430.429 961.466 430.88 959.435 431.783 958.081C434.265 954.02 434.265 954.02 438.552 955.825C439.003 956.05 439.454 956.727 439.68 957.404C439.906 958.984 439.68 960.563 439.906 962.368C439.906 963.045 440.583 963.722 441.034 964.399C442.388 965.978 443.741 964.85 444.87 964.399C449.834 962.368 449.834 962.368 452.993 967.107C451.187 969.137 450.059 970.717 449.157 972.296ZM413.957 982.224C413.506 990.121 420.05 997.116 428.398 997.793C436.295 998.244 443.516 991.701 443.967 983.352C444.418 975.455 437.875 968.46 429.526 968.009C421.629 967.558 414.634 973.876 413.957 982.224Z" fill="white"/>
<path d="M554.981 1008.17C553.853 1009.08 553.853 1012.01 555.206 1012.69C557.237 1013.59 557.463 1014.72 556.56 1016.52C556.335 1016.97 556.335 1017.42 556.109 1017.88C554.529 1018.1 552.724 1017.2 551.596 1019.45C550.242 1021.71 552.047 1022.61 552.499 1024.64C552.047 1024.87 551.371 1025.32 550.919 1025.77C550.017 1026.9 548.889 1027.13 547.986 1026C546.632 1024.64 545.73 1025.77 544.376 1026.22C543.248 1026.68 543.248 1027.58 543.248 1028.48C543.473 1030.06 542.796 1030.51 541.217 1030.74C539.863 1030.96 538.735 1031.41 538.284 1029.61C538.058 1028.93 537.381 1028.25 536.704 1028.03C534.899 1027.8 533.094 1027.58 532.417 1029.83C532.417 1030.29 531.966 1030.51 531.74 1030.96C531.063 1030.74 530.386 1030.51 529.709 1030.51C529.033 1030.29 528.581 1030.06 527.904 1029.83C527.904 1028.93 527.904 1028.03 527.904 1027.35C527.904 1025.77 524.971 1024.19 523.843 1025.1C522.038 1026.45 520.91 1026 519.781 1024.42C519.556 1023.97 519.105 1023.74 518.879 1023.29C519.33 1022.61 519.556 1022.16 520.007 1021.49C520.91 1019.91 519.33 1016.75 517.525 1016.97C515.72 1017.2 515.043 1016.3 514.817 1014.72C514.817 1014.27 514.592 1013.59 514.592 1013.14C514.817 1012.91 515.043 1012.69 515.269 1012.69C516.397 1012.01 517.525 1011.56 517.525 1009.75C517.525 1007.95 517.074 1007.04 515.494 1006.37C513.915 1005.69 515.269 1004.34 515.269 1003.43C515.269 1002.53 515.72 1001.86 516.848 1002.08C517.525 1002.08 518.653 1002.08 519.105 1001.63C520.91 999.824 520.91 998.696 519.781 996.665C519.556 996.44 519.556 996.214 519.33 995.763C520.233 994.86 521.361 993.958 522.263 993.055C523.843 993.732 524.745 995.086 527.002 993.958C529.258 992.83 528.356 991.025 528.807 989.445C530.161 989.219 531.289 988.768 532.643 988.542C533.094 989.219 533.545 989.896 533.771 990.573C534.222 992.153 535.576 991.701 536.704 991.927C537.832 992.153 538.509 991.476 538.735 990.573C539.412 988.994 540.314 988.542 541.894 989.219C542.571 989.445 543.022 989.671 543.699 989.896C543.699 990.799 543.925 991.476 543.699 992.153C543.248 993.732 544.601 993.958 545.504 994.635C546.407 995.312 547.083 995.312 547.986 994.635C549.34 993.281 550.694 993.732 551.596 995.086C551.822 995.537 552.273 995.989 552.724 996.214C552.273 998.019 550.468 998.922 551.596 1001.18C552.724 1003.43 554.529 1002.31 556.335 1002.76C557.688 1006.37 557.688 1006.37 554.981 1008.17ZM523.166 1010.43C523.166 1017.42 528.807 1023.06 535.802 1023.06C542.571 1023.06 548.437 1017.42 548.437 1010.43C548.437 1003.43 542.796 997.794 535.802 997.794C529.033 997.794 523.166 1003.43 523.166 1010.43Z" fill="white"/>
<path d="M580.252 887.457C579.123 887.908 578.672 887.232 577.995 886.78C576.19 885.201 573.934 884.975 571.903 886.78C571.226 887.457 570.549 887.908 569.647 887.232C568.744 886.78 568.744 886.103 568.744 885.201C568.97 882.719 567.39 880.688 565.134 880.011C564.457 879.786 563.78 879.109 563.554 878.657C563.103 877.755 563.554 877.078 564.457 876.401C566.488 875.273 567.165 872.791 566.036 870.534C565.811 869.858 565.811 868.955 566.036 868.504C566.488 867.827 567.165 867.15 568.293 867.601C570.549 868.504 572.58 867.601 573.934 865.345C574.159 864.894 575.062 864.217 575.739 864.442C576.416 864.442 577.318 864.894 577.544 865.57C578.672 868.052 580.252 868.955 582.959 868.504C583.636 868.504 584.313 868.955 584.99 869.406C585.667 870.083 585.667 870.76 585.216 871.663C583.862 873.919 584.087 875.724 586.344 877.304C587.246 877.98 587.246 878.657 587.021 879.56C586.795 880.688 586.118 880.914 585.216 880.914C582.959 881.139 581.38 882.944 581.38 885.426C581.605 886.103 581.605 887.006 580.252 887.457ZM575.288 870.309C571.903 870.309 569.195 873.016 569.421 876.401C569.421 879.56 572.129 882.268 575.288 882.268C578.447 882.268 581.154 879.56 581.154 876.401C581.154 873.016 578.447 870.309 575.288 870.309Z" fill="white"/>
<path d="M184.485 1332.86C183.357 1333.31 182.906 1332.64 182.229 1332.19C180.424 1330.61 178.168 1330.38 176.137 1332.19C175.46 1332.86 174.783 1333.31 173.881 1332.64C172.978 1332.19 172.978 1331.51 172.978 1330.61C173.204 1328.13 171.624 1326.09 169.368 1325.42C168.691 1325.19 168.014 1324.51 167.788 1324.06C167.337 1323.16 167.788 1322.48 168.691 1321.81C170.722 1320.68 171.399 1318.2 170.27 1315.94C170.045 1315.26 170.045 1314.36 170.27 1313.91C170.722 1313.23 171.399 1312.56 172.527 1313.01C174.783 1313.91 176.814 1313.01 178.168 1310.75C178.393 1310.3 179.296 1309.62 179.973 1309.85C180.65 1309.85 181.552 1310.3 181.778 1310.98C182.906 1313.46 184.485 1314.36 187.193 1313.91C187.87 1313.91 188.547 1314.36 189.224 1314.81C189.901 1315.49 189.901 1316.17 189.449 1317.07C188.096 1319.33 188.321 1321.13 190.578 1322.71C191.48 1323.39 191.48 1324.06 191.255 1324.97C191.029 1326.09 190.352 1326.32 189.449 1326.32C187.193 1326.55 185.614 1328.35 185.614 1330.83C185.839 1331.51 185.839 1332.19 184.485 1332.86ZM179.521 1315.72C176.137 1315.72 173.429 1318.42 173.655 1321.81C173.655 1324.97 176.363 1327.67 179.521 1327.67C182.68 1327.67 185.388 1324.97 185.388 1321.81C185.388 1318.2 182.906 1315.72 179.521 1315.72Z" fill="white"/>
<path d="M531.063 968.686C529.257 968.686 527.452 968.235 525.647 967.558C524.97 967.332 524.745 966.43 524.97 965.753C525.196 965.076 526.099 964.85 526.775 965.076C530.837 967.107 536.252 965.753 538.734 962.368C539.411 961.692 539.637 960.563 539.862 959.661C538.509 959.435 536.929 958.984 535.801 958.533C533.996 957.856 532.416 956.953 531.063 955.599C529.709 954.02 529.032 951.312 530.611 949.282C532.416 946.8 536.027 947.025 538.283 948.605C540.539 949.958 542.119 952.44 542.57 955.374C542.57 955.825 542.796 956.276 542.796 956.728C545.278 956.051 547.083 953.794 547.76 950.861C547.985 949.282 547.985 947.702 547.534 945.897C544.601 945.897 542.119 945.22 540.088 944.543C537.155 943.641 535.35 941.61 535.124 939.354C534.898 937.774 535.575 936.42 536.929 935.292C538.509 933.938 540.765 933.487 542.57 934.164C545.052 935.066 547.083 937.097 548.662 940.707C548.888 941.384 549.339 942.061 549.565 942.738C550.242 942.512 551.144 942.287 551.821 942.061C552.047 941.836 554.754 940.707 555.657 937.774C556.108 936.42 556.108 935.066 555.657 933.713C551.144 934.39 545.052 932.584 542.344 929.651C540.539 927.846 540.539 926.041 540.991 924.913C541.442 923.108 543.021 922.205 545.052 921.98C548.211 921.528 553.401 923.333 555.431 926.492C556.334 927.846 557.011 929.2 557.462 930.328C559.718 929.2 561.975 927.169 563.103 924.913C564.005 923.333 564.682 920.626 563.103 917.692C562.652 917.016 563.103 916.113 563.78 915.887C564.457 915.662 565.359 915.887 565.585 916.564C567.164 919.723 567.164 923.108 565.585 926.267C564.005 929.2 561.298 931.908 558.365 933.036C558.816 935.066 558.816 937.097 558.365 938.677C557.236 942.964 553.401 944.543 552.949 944.769C552.047 945.22 551.144 945.446 550.242 945.671C550.693 947.702 550.693 949.507 550.467 951.312C549.79 955.374 546.857 958.533 543.473 959.435C543.247 959.435 543.021 959.435 542.796 959.661C542.57 961.24 541.893 962.594 540.991 963.948C538.96 966.881 535.124 968.686 531.063 968.686ZM534.673 949.958C533.996 949.958 533.319 950.184 533.093 950.635C532.416 951.312 532.868 952.666 533.545 953.569C534.447 954.471 535.801 955.148 537.155 955.825C538.283 956.276 539.411 956.728 540.539 956.728C540.539 956.502 540.539 956.051 540.314 955.825C539.862 953.794 538.734 951.989 537.155 950.861C536.478 950.184 535.575 949.958 534.673 949.958ZM541.216 936.872C540.539 936.872 539.637 937.097 538.96 937.548C538.509 937.774 538.057 938.451 538.057 939.128C538.283 940.482 539.862 941.384 541.216 941.836C542.796 942.287 544.826 942.964 547.083 942.964C546.857 942.738 546.857 942.287 546.631 941.836C545.278 938.902 543.924 937.323 542.119 936.872C541.667 936.872 541.442 936.872 541.216 936.872ZM546.406 924.462C546.18 924.462 545.955 924.462 545.729 924.462C544.826 924.687 544.149 924.913 543.924 925.59C543.924 925.815 543.698 926.492 544.601 927.62C546.631 929.877 551.37 931.231 554.98 931.005C554.529 930.102 553.852 928.974 553.175 927.846C552.047 926.041 548.888 924.462 546.406 924.462Z" fill="white"/>
<path d="M558.816 610.601C553.852 609.022 547.986 609.022 543.022 608.57C537.155 608.119 531.966 608.796 527.453 612.858C524.294 615.791 522.489 619.401 522.038 623.237C521.361 623.914 520.684 624.591 520.232 625.493C516.397 632.488 517.75 645.124 522.94 650.99C529.935 658.887 544.376 661.369 554.078 658.21C563.555 655.052 571.226 646.477 573.031 636.549C574.836 625.719 569.872 614.211 558.816 610.601Z" fill="#E89F2B"/>
<path d="M615.225 614.889C607.102 605.638 560.621 575.854 548.437 575.854C529.935 575.854 492.705 603.156 477.136 616.919C469.239 623.688 468.336 627.073 474.428 628.652C487.966 632.263 500.602 632.939 511.207 633.165C529.032 633.842 546.858 633.842 564.683 633.165C576.867 632.714 597.851 631.586 610.036 628.427C618.61 626.17 626.056 627.073 615.225 614.889Z" fill="#488C93"/>
<path d="M546.18 593.904C544.826 538.623 544.375 483.116 544.601 427.835Z" fill="#488C93"/>
<path d="M548.211 594.355C552.949 581.945 552.498 602.027 552.949 588.94C553.401 574.725 552.498 525.085 552.498 510.87C552.724 482.891 554.754 454.235 548.437 426.708C547.534 423.097 541.893 423.097 540.991 426.708C534.222 454.687 536.704 484.471 537.38 513.126C537.606 527.341 535.35 572.694 536.478 586.684C537.38 599.319 539.411 583.074 544.601 594.807C545.278 596.386 547.534 595.709 548.211 594.355Z" fill="#488C93"/>
<path d="M551.37 581.043C564.457 587.361 576.867 595.033 588.6 603.832C590.405 605.186 591.985 602.253 590.405 600.899C578.898 592.099 566.488 584.428 553.175 578.11C551.144 577.207 549.565 580.141 551.37 581.043Z" fill="#7DB4B7"/>
<path d="M521.812 638.129C522.94 638.129 522.94 636.324 521.812 636.324C520.684 636.324 520.684 638.129 521.812 638.129Z" fill="#F4B251"/>
<path d="M522.037 642.867C526.55 655.728 540.991 660.241 553.401 656.405C554.529 656.18 554.077 654.374 552.949 654.826C541.442 658.436 527.904 654.6 523.617 642.416C523.391 641.288 521.811 641.739 522.037 642.867Z" fill="#F4B251"/>
<path d="M594.467 607.443C596.723 607.443 596.723 604.058 594.467 604.058C592.21 604.058 592.21 607.443 594.467 607.443Z" fill="#7DB4B7"/>
</g>
<defs>
<radialGradient id="paint0_radial_103_14" cx="0" cy="0" r="1" gradientUnits="userSpaceOnUse" gradientTransform="translate(857.406 -10.9156) rotate(26.5651) scale(1613.76 1291.01)">
<stop stop-color="#7877C6"/>
<stop offset="0.7" stop-opacity="0"/>
</radialGradient>
<radialGradient id="paint1_radial_103_14" cx="0" cy="0" r="1" gradientUnits="userSpaceOnUse" gradientTransform="translate(1256.74 -340.559) rotate(39.9732) scale(1112.67 1095.59)">
<stop/>
<stop offset="1" stop-opacity="0"/>
</radialGradient>
<linearGradient id="paint2_linear_103_14" x1="605.047" y1="2148" x2="605.047" y2="761.442" gradientUnits="userSpaceOnUse">
<stop stop-color="#0D0D12"/>
<stop offset="0.591955" stop-color="#0D0D12"/>
<stop offset="0.842079" stop-color="#0D0D12" stop-opacity="0"/>
</linearGradient>
<linearGradient id="paint3_linear_103_14" x1="545.503" y1="627.073" x2="545.503" y2="1372" gradientUnits="userSpaceOnUse">
<stop stop-color="white"/>
<stop offset="1" stop-color="white" stop-opacity="0"/>
</linearGradient>
<clipPath id="clip0_103_14">
<rect width="1080" height="2148" fill="white"/>
</clipPath>
<clipPath id="clip1_103_14">
<rect width="1705.38" height="1429.63" fill="white" transform="translate(404.046 -1055.37) rotate(39.1308)"/>
</clipPath>
</defs>
</svg>
